SplineFontDB: 3.0
FontName: Nunito-Regular
FullName: Nunito Regular
FamilyName: Nunito
Weight: Normal
Copyright: Copyright (c) 2011 by vernon adams. All rights reserved.
Version: 1.000
FONDName: Nunito Regular
ItalicAngle: 0
UnderlinePosition: -205
UnderlineWidth: 102
Ascent: 1638
Descent: 410
UFOAscent: 2030
UFODescent: -675
LayerCount: 2
Layer: 0 0 "Back"  1
Layer: 1 0 "Fore"  0
FSType: 0
OS2Version: 0
OS2_WeightWidthSlopeOnly: 0
OS2_UseTypoMetrics: 0
CreationTime: 1335200847
ModificationTime: 1335206775
PfmFamily: 0
TTFWeight: 400
TTFWidth: 0
LineGap: 0
VLineGap: 0
Panose: 2 0 5 3 3 0 0 2 0 3
OS2TypoAscent: 2030
OS2TypoAOffset: 0
OS2TypoDescent: -675
OS2TypoDOffset: 0
OS2TypoLinegap: 0
OS2WinAscent: 2030
OS2WinAOffset: 0
OS2WinDescent: -675
OS2WinDOffset: 0
HheadAscent: 2030
HheadAOffset: 0
HheadDescent: -675
HheadDOffset: 0
OS2SubXSize: 5583
OS2SubYSize: 5155
OS2SubXOff: 0
OS2SubYOff: 645
OS2SupXSize: 5583
OS2SupYSize: 5155
OS2SupXOff: 0
OS2SupYOff: 3006
OS2StrikeYSize: 102
OS2StrikeYPos: 512
OS2Vendor: 'newt'
OS2CodePages: 20000001.00000000
OS2UnicodeRanges: 800000ef.5000204b.00000000.00000000
Lookup: 258 0 0 "'kern' Horizontal Kerning lookup 0"  {"'kern' Horizontal Kerning lookup 0 subtable"  } ['kern' ('DFLT' <'dflt' > ) ]
Lookup: 258 0 0 "'kern' Horizontal Kerning in Latin lookup 0"  {"'kern' Horizontal Kerning in Latin lookup 0 subtable"  } ['kern' ('latn' <'dflt' > ) ]
DEI: 91125
LangName: 1033 "" "" "" "vernonadams: Nunito: 2011" "" "Version 1.000" "" "Nunito is a trademark of vernon adams." "vernon adams" "vernon adams" "Copyright (c) 2011 by vernon adams. All rights reserved." "" "www.newtypography.co.uk" "SIL Open Font License, Version 1.1+AAoA-This Font Software is licensed under the SIL Open Font License, Version 1.1.+AAoA-This license is available with a FAQ at: http://scripts.sil.org/OFL" "http://scripts.sil.org/OFL" "" "" "" "Nunito Regular" 
PickledData: "(dp1
S'org.robofab.glyphOrder'
p2
(S'.notdef'
S'NULL'
S'CR'
S'space'
S'exclam'
S'quotedbl'

StartChar: A
Encoding: 65 65 1
Width: 1445
VWidth: 0
Flags: W
LayerCount: 2
Fore
SplineSet
1380 157 m 2
 1385 144 1387 130 1387 117 c 0
 1387 45 1320 1 1253 1 c 0
 1204 1 1155 27 1140 86 c 1
 1036 353 l 1
 395 353 l 1
 292 86 l 1
 276 26 229 1 181 1 c 0
 116 1 49 46 49 115 c 1
 48 128 51 142 57 157 c 2
 477 1207 l 1
 543 1393 607 1437 717 1437 c 0
 829 1437 894 1388 958 1207 c 1
 1380 157 l 2
714 1232 m 1
 450 521 l 1
 981 521 l 1
 718 1232 l 1
 714 1232 l 1
EndSplineSet
EndChar

StartChar: AE
Encoding: 198 198 2
Width: 1976
VWidth: 0
Flags: W
LayerCount: 2
Fore
SplineSet
1262 0 m 2
 1202 0 1142 22 1134 86 c 1
 1089 353 l 1
 459 353 l 1
 293 86 l 1
 265 26 214 0 165 0 c 0
 108 0 56 36 56 95 c 0
 56 114 62 135 73 157 c 1
 718 1231 l 1
 806 1407 884 1437 989 1437 c 2
 1815 1438 l 2
 1884 1438 1922 1383 1922 1331 c 0
 1922 1285 1893 1240 1829 1240 c 2
 1214 1240 l 1
 1277 835 l 1
 1781 835 l 2
 1851 835 1887 780 1887 729 c 0
 1887 682 1858 637 1794 637 c 2
 1303 637 l 1
 1373 198 l 1
 1830 198 l 2
 1899 198 1937 143 1937 92 c 0
 1937 45 1908 3 1844 0 c 1
 1262 0 l 2
544 521 m 1
 1069 521 l 1
 962 1274 l 1
 959 1274 l 1
 544 521 l 1
EndSplineSet
EndChar

StartChar: B
Encoding: 66 66 9
Width: 1422
VWidth: 0
Flags: W
LayerCount: 2
Fore
SplineSet
175 1310 m 2
 175 1381 232 1438 304 1438 c 2
 809 1437 l 2
 1061 1436 1241 1287 1241 1077 c 0
 1241 921 1126 784 964 752 c 1
 964 748 l 1
 1164 719 1294 584 1294 393 c 0
 1294 201 1161 0 817 0 c 2
 304 0 l 2
 232 0 175 57 175 127 c 2
 175 1310 l 2
433 177 m 1
 685 177 l 2
 906 177 1026 232 1026 422 c 0
 1026 621 864 661 628 661 c 2
 433 661 l 1
 433 177 l 1
433 1260 m 1
 433 815 l 1
 681 815 l 2
 842 815 976 879 976 1042 c 0
 976 1217 832 1260 676 1260 c 2
 433 1260 l 1
EndSplineSet
EndChar

StartChar: C
Encoding: 67 67 10
Width: 1422
VWidth: 0
Flags: W
LayerCount: 2
Fore
SplineSet
103 712 m 0
 103 1180 388 1470 778 1470 c 0
 899 1470 1029 1442 1166 1382 c 0
 1210 1363 1229 1325 1229 1289 c 0
 1229 1238 1193 1188 1134 1188 c 0
 1122 1188 1109 1191 1094 1196 c 0
 987 1234 891 1253 808 1253 c 0
 531 1253 380 1057 380 717 c 0
 380 406 511 189 783 189 c 0
 878 189 986 214 1114 271 c 0
 1131 279 1148 282 1163 282 c 0
 1218 282 1254 235 1254 183 c 0
 1254 142 1232 97 1176 71 c 0
 1028 2 890 -33 764 -33 c 0
 371 -33 103 269 103 712 c 0
EndSplineSet
EndChar

StartChar: D
Encoding: 68 68 13
Width: 1524
VWidth: 0
Flags: W
LayerCount: 2
Fore
SplineSet
294 0 m 2
 221 0 161 58 161 130 c 2
 161 1307 l 2
 161 1379 221 1438 294 1438 c 2
 650 1438 l 2
 1167 1438 1417 1174 1417 713 c 0
 1417 252 1136 0 660 0 c 2
 294 0 l 2
427 183 m 1
 653 183 l 2
 1000 183 1135 383 1135 718 c 0
 1135 1089 950 1254 616 1254 c 2
 427 1254 l 1
 427 183 l 1
EndSplineSet
EndChar

StartChar: E
Encoding: 69 69 14
Width: 1263
VWidth: 0
Flags: W
LayerCount: 2
Fore
SplineSet
309 0 m 2
 241 0 178 60 178 129 c 2
 178 1309 l 2
 178 1377 233 1438 305 1438 c 2
 1033 1438 l 2
 1100 1438 1132 1389 1132 1339 c 0
 1132 1290 1100 1240 1033 1240 c 2
 439 1240 l 1
 439 835 l 1
 995 835 l 2
 1063 835 1095 786 1095 736 c 0
 1095 687 1061 637 995 637 c 2
 439 637 l 1
 439 198 l 1
 1055 198 l 2
 1122 198 1154 149 1154 99 c 0
 1154 50 1122 0 1055 0 c 2
 309 0 l 2
EndSplineSet
EndChar

StartChar: Eth
Encoding: 208 208 19
Width: 1524
VWidth: 0
Flags: W
LayerCount: 2
Fore
SplineSet
294 0 m 2
 221 0 161 58 161 130 c 2
 161 648 l 1
 66 648 l 2
 18 648 -7 685 -7 721 c 0
 -7 758 17 794 66 794 c 2
 161 794 l 1
 161 1307 l 2
 161 1379 221 1438 294 1438 c 2
 650 1438 l 2
 1167 1438 1417 1174 1417 713 c 0
 1417 252 1136 0 660 0 c 2
 294 0 l 2
427 648 m 1
 427 183 l 1
 653 183 l 2
 1000 183 1135 383 1135 718 c 0
 1135 1089 950 1254 616 1254 c 2
 427 1254 l 1
 427 794 l 1
 540 794 l 2
 589 794 613 757 613 721 c 0
 613 684 589 648 540 648 c 2
 427 648 l 1
EndSplineSet
EndChar

StartChar: Euro
Encoding: 8364 8364 20
Width: 1422
VWidth: 0
Flags: W
LayerCount: 2
Fore
SplineSet
135 820 m 1
 74 820 l 2
 33 820 12 852 12 884 c 0
 12 915 31 947 74 947 c 2
 154 947 l 1
 221 1259 453 1458 791 1458 c 0
 907 1458 1027 1438 1124 1401 c 1
 1167 1382 1184 1344 1184 1308 c 0
 1184 1257 1150 1208 1096 1208 c 0
 1085 1208 1074 1211 1062 1215 c 0
 987 1240 907 1253 822 1253 c 0
 606 1253 489 1118 441 947 c 1
 970 947 l 2
 1013 947 1033 915 1033 884 c 0
 1033 852 1013 820 970 820 c 2
 417 820 l 1
 413 786 411 752 411 718 c 0
 411 679 413 640 418 600 c 1
 965 600 l 2
 1008 600 1028 569 1028 537 c 0
 1028 506 1008 474 965 474 c 2
 444 474 l 1
 495 308 610 180 822 180 c 0
 903 180 994 194 1074 221 c 0
 1085 224 1095 226 1103 226 c 0
 1155 226 1191 177 1191 127 c 0
 1191 90 1172 52 1125 33 c 1
 1021 -4 905 -25 785 -25 c 0
 453 -25 229 165 157 474 c 1
 69 474 l 2
 26 474 6 506 6 537 c 0
 6 569 26 600 69 600 c 2
 136 600 l 1
 132 636 130 673 130 712 c 0
 130 747 132 781 135 820 c 1
EndSplineSet
EndChar

StartChar: F
Encoding: 70 70 21
Width: 1172
VWidth: 0
Flags: W
LayerCount: 2
Fore
SplineSet
168 1306 m 2
 168 1382 229 1438 298 1438 c 2
 988 1438 l 2
 1055 1438 1087 1389 1087 1339 c 0
 1087 1290 1055 1240 988 1240 c 2
 437 1240 l 1
 437 842 l 1
 960 842 l 2
 1027 842 1059 792 1059 743 c 0
 1059 692 1027 643 960 643 c 2
 437 643 l 1
 437 129 l 2
 437 43 370 0 302 0 c 0
 235 0 168 43 168 129 c 2
 168 1306 l 2
EndSplineSet
EndChar

StartChar: G
Encoding: 71 71 22
Width: 1535
VWidth: 0
Flags: W
LayerCount: 2
Fore
SplineSet
1282 757 m 2
 1353 757 1379 718 1379 647 c 2
 1379 177 l 2
 1379 90 1329 43 1262 32 c 1
 1140 -5 955 -33 828 -33 c 0
 393 -33 107 203 107 718 c 0
 107 1133 342 1470 839 1470 c 0
 997 1470 1147 1440 1266 1391 c 0
 1310 1372 1329 1336 1329 1300 c 0
 1329 1249 1292 1197 1232 1197 c 0
 1224 1197 1214 1198 1205 1201 c 0
 1095 1228 960 1253 860 1253 c 0
 521 1253 389 1021 389 710 c 0
 389 350 510 162 841 162 c 0
 933 162 1029 177 1117 198 c 1
 1117 587 l 1
 885 587 l 2
 828 587 801 630 801 673 c 0
 801 716 828 757 885 757 c 2
 1282 757 l 2
EndSplineSet
EndChar

StartChar: H
Encoding: 72 72 23
Width: 1524
VWidth: 0
Flags: W
LayerCount: 2
Fore
SplineSet
1082 1307 m 2
 1082 1392 1149 1436 1217 1436 c 0
 1284 1436 1351 1393 1351 1307 c 2
 1351 131 l 2
 1351 45 1284 2 1216 2 c 0
 1149 2 1082 45 1082 131 c 2
 1082 639 l 1
 442 639 l 1
 442 131 l 2
 442 45 375 2 307 2 c 0
 240 2 173 45 173 131 c 2
 173 1307 l 2
 173 1392 240 1436 308 1436 c 0
 375 1436 442 1393 442 1307 c 2
 442 851 l 1
 1082 851 l 1
 1082 1307 l 2
EndSplineSet
EndChar

StartChar: I
Encoding: 73 73 24
Width: 637
VWidth: 0
Flags: W
LayerCount: 2
Fore
SplineSet
185 1311 m 2
 185 1397 252 1440 319 1440 c 0
 386 1440 453 1397 453 1311 c 2
 453 130 l 2
 453 45 386 2 318 2 c 0
 251 2 185 45 185 130 c 2
 185 1311 l 2
EndSplineSet
EndChar

StartChar: J
Encoding: 74 74 29
Width: 1126
VWidth: 0
Flags: W
LayerCount: 2
Fore
SplineSet
703 1310 m 2
 703 1395 770 1438 838 1438 c 0
 905 1438 972 1395 972 1310 c 2
 972 443 l 2
 972 102 751 -31 492 -31 c 0
 328 -31 169 46 94 198 c 1
 76 222 67 246 67 269 c 0
 67 325 119 365 169 365 c 0
 192 365 215 356 232 335 c 1
 281 232 360 165 476 165 c 0
 624 165 703 257 703 461 c 2
 703 1310 l 2
EndSplineSet
EndChar

StartChar: K
Encoding: 75 75 30
Width: 1365
VWidth: 0
Flags: W
LayerCount: 2
Fore
SplineSet
447 127 m 2
 447 43 380 0 314 0 c 0
 247 0 183 42 183 127 c 2
 183 1311 l 2
 183 1396 249 1438 315 1438 c 0
 381 1438 447 1396 447 1311 c 2
 447 805 l 1
 968 1380 l 1
 995 1420 1032 1436 1069 1436 c 0
 1132 1436 1195 1388 1195 1324 c 0
 1195 1302 1187 1280 1171 1257 c 1
 709 780 l 1
 1223 197 l 1
 1242 172 1248 147 1248 124 c 0
 1248 55 1181 1 1113 1 c 0
 1074 1 1036 17 1009 60 c 1
 447 720 l 1
 447 127 l 2
EndSplineSet
EndChar

StartChar: L
Encoding: 76 76 31
Width: 1172
VWidth: 0
Flags: W
LayerCount: 2
Fore
SplineSet
310 0 m 2
 238 0 175 59 175 133 c 2
 175 1307 l 2
 175 1393 242 1436 310 1436 c 0
 377 1436 444 1393 444 1307 c 2
 444 202 l 1
 1022 202 l 2
 1089 202 1123 151 1123 101 c 0
 1123 50 1089 0 1022 0 c 2
 310 0 l 2
EndSplineSet
EndChar

StartChar: Lslash
Encoding: 321 321 32
Width: 1172
VWidth: 0
Flags: W
LayerCount: 2
Fore
SplineSet
310 0 m 2
 238 0 175 59 175 133 c 2
 175 694 l 1
 79 663 l 2
 68 660 59 658 52 658 c 0
 4 658 -29 704 -29 748 c 0
 -29 779 -13 809 26 822 c 2
 175 870 l 1
 175 1307 l 2
 175 1393 242 1436 310 1436 c 0
 377 1436 444 1393 444 1307 c 2
 444 958 l 1
 671 1033 l 2
 679 1036 688 1037 698 1037 c 0
 745 1037 778 992 778 948 c 0
 778 917 762 887 723 874 c 2
 444 782 l 1
 444 202 l 1
 1022 202 l 2
 1089 202 1123 151 1123 101 c 0
 1123 50 1089 0 1022 0 c 2
 310 0 l 2
EndSplineSet
EndChar

StartChar: M
Encoding: 77 77 33
Width: 2002
VWidth: 0
Flags: W
LayerCount: 2
Fore
SplineSet
1004 326 m 1
 1409 1243 l 1
 1470 1395 1527 1438 1630 1438 c 0
 1731 1438 1821 1377 1821 1222 c 2
 1821 116 l 2
 1821 40 1765 0 1708 0 c 0
 1653 0 1597 40 1597 116 c 2
 1597 1180 l 1
 1154 163 l 1
 1128 89 1062 49 998 49 c 0
 937 49 876 84 848 163 c 1
 406 1174 l 1
 406 116 l 2
 406 40 350 0 294 0 c 0
 238 0 183 40 183 116 c 2
 183 1222 l 2
 183 1377 273 1438 377 1438 c 0
 481 1438 539 1393 600 1241 c 1
 998 326 l 1
 1004 326 l 1
EndSplineSet
EndChar

StartChar: N
Encoding: 78 78 34
Width: 1547
VWidth: 0
Flags: W
LayerCount: 2
Fore
SplineSet
163 1278 m 2
 163 1379 230 1437 306 1437 c 0
 357 1437 409 1412 450 1360 c 1
 1149 353 l 1
 1149 1324 l 2
 1149 1399 1207 1438 1267 1438 c 0
 1326 1438 1384 1400 1384 1324 c 2
 1384 159 l 2
 1384 59 1315 0 1238 0 c 0
 1189 0 1137 24 1094 77 c 1
 399 1079 l 1
 399 113 l 2
 399 38 339 0 280 0 c 0
 221 0 163 37 163 113 c 2
 163 1278 l 2
EndSplineSet
EndChar

StartChar: O
Encoding: 79 79 37
Width: 1604
VWidth: 0
Flags: W
LayerCount: 2
Fore
SplineSet
394 718 m 0
 394 398 517 165 802 165 c 0
 1086 165 1211 398 1211 718 c 0
 1211 1035 1088 1272 802 1272 c 0
 516 1272 394 1035 394 718 c 0
111 718 m 0
 111 1166 354 1470 802 1470 c 0
 1253 1470 1493 1166 1493 718 c 0
 1493 271 1253 -33 802 -33 c 0
 354 -33 111 271 111 718 c 0
EndSplineSet
EndChar

StartChar: OE
Encoding: 338 338 38
Width: 1997
VWidth: 0
Flags: W
LayerCount: 2
Fore
SplineSet
1038 1251 m 1
 1027 1255 926 1273 742 1273 c 0
 487 1273 367 1030 367 720 c 0
 367 411 481 162 741 162 c 1
 917 165 1029 183 1038 189 c 1
 1038 1251 l 1
1294 1240 m 1
 1294 833 l 1
 1731 833 l 2
 1795 833 1829 784 1829 735 c 0
 1829 686 1795 638 1731 638 c 2
 1294 638 l 1
 1294 196 l 1
 1791 196 l 2
 1855 196 1888 146 1888 97 c 0
 1888 49 1855 -1 1791 -1 c 2
 1076 -1 l 2
 1047 -1 845 -24 726 -24 c 0
 345 -24 103 261 103 718 c 0
 103 1177 343 1459 745 1459 c 0
 874 1459 1073 1437 1102 1437 c 2
 1770 1437 l 2
 1835 1437 1867 1386 1867 1339 c 0
 1867 1289 1835 1240 1770 1240 c 2
 1294 1240 l 1
EndSplineSet
EndChar

StartChar: Oslash
Encoding: 216 216 44
Width: 1604
VWidth: 0
Flags: W
LayerCount: 2
Fore
SplineSet
1191 1360 m 1
 1390 1239 1493 1013 1493 718 c 0
 1493 271 1253 -33 802 -33 c 0
 714 -33 636 -20 565 3 c 1
 508 -113 l 2
 492 -145 465 -158 438 -158 c 0
 398 -158 358 -128 358 -84 c 1
 357 -71 361 -58 368 -45 c 2
 424 71 l 1
 220 188 111 422 111 718 c 0
 111 1166 354 1470 802 1470 c 0
 894 1470 976 1456 1048 1432 c 1
 1102 1540 l 2
 1118 1572 1146 1586 1175 1586 c 0
 1216 1586 1256 1557 1256 1513 c 0
 1256 1499 1253 1485 1246 1472 c 2
 1191 1360 l 1
1220 718 m 0
 1220 877 1168 1035 1048 1118 c 1
 669 188 l 1
 709 172 753 165 802 165 c 0
 1093 165 1220 398 1220 718 c 0
385 718 m 0
 385 562 439 386 566 312 c 1
 943 1245 l 1
 902 1263 855 1272 802 1272 c 0
 510 1272 385 1035 385 718 c 0
EndSplineSet
EndChar

StartChar: P
Encoding: 80 80 46
Width: 1331
VWidth: 0
Flags: W
LayerCount: 2
Fore
SplineSet
444 581 m 1
 444 128 l 2
 444 42 377 -1 309 -1 c 0
 242 -1 175 42 175 128 c 2
 175 1305 l 2
 175 1378 235 1438 310 1438 c 2
 715 1438 l 2
 1015 1438 1273 1322 1273 1011 c 0
 1273 694 1007 581 691 581 c 2
 444 581 l 1
679 765 m 2
 863 765 1004 823 1004 1011 c 0
 1004 1197 865 1254 689 1254 c 2
 444 1254 l 1
 444 765 l 1
 679 765 l 2
EndSplineSet
EndChar

StartChar: Q
Encoding: 81 81 47
Width: 1604
VWidth: 0
Flags: W
LayerCount: 2
Fore
SplineSet
111 718 m 0
 111 1166 354 1470 802 1470 c 0
 1253 1470 1489 1172 1489 724 c 0
 1489 501 1400 317 1266 191 c 1
 1448 191 l 2
 1512 191 1544 144 1544 97 c 0
 1544 49 1512 3 1448 0 c 0
 1352 -4 982 -10 959 -10 c 1
 895 -25 850 -33 802 -33 c 0
 354 -33 111 271 111 718 c 0
394 718 m 0
 394 398 517 165 802 165 c 0
 1086 165 1211 398 1211 718 c 0
 1211 1035 1088 1272 802 1272 c 0
 516 1272 394 1035 394 718 c 0
EndSplineSet
EndChar

StartChar: R
Encoding: 82 82 48
Width: 1422
VWidth: 0
Flags: W
LayerCount: 2
Fore
SplineSet
179 1307 m 2
 179 1379 239 1438 312 1438 c 2
 762 1438 l 2
 1030 1438 1281 1364 1281 1071 c 0
 1281 910 1185 786 975 746 c 1
 975 742 l 1
 1245 703 1241 522 1268 225 c 1
 1275 125 l 1
 1275 45 1209 2 1143 2 c 0
 1081 2 1020 39 1009 117 c 1
 965 547 988 632 721 632 c 2
 444 632 l 1
 444 129 l 2
 444 44 377 2 311 2 c 0
 245 2 179 44 179 129 c 2
 179 1307 l 2
658 814 m 2
 823 814 1012 835 1012 1037 c 0
 1012 1236 846 1254 709 1254 c 2
 444 1254 l 1
 444 814 l 1
 658 814 l 2
EndSplineSet
EndChar

StartChar: S
Encoding: 83 83 49
Width: 1319
VWidth: 0
Flags: W
LayerCount: 2
Fore
SplineSet
390 1077 m 0
 390 917 579 875 777 815 c 0
 1030 739 1225 644 1225 393 c 0
 1225 126 998 -36 660 -36 c 0
 407 -36 196 54 117 176 c 1
 112 186 109 197 109 210 c 0
 109 258 156 317 196 317 c 0
 219 317 242 299 265 284 c 0
 351 228 487 170 658 170 c 0
 829 170 959 233 959 368 c 0
 959 545 767 579 575 641 c 0
 307 728 128 821 128 1063 c 0
 128 1319 363 1470 671 1470 c 0
 875 1470 1039 1411 1155 1292 c 0
 1172 1274 1178 1252 1178 1229 c 0
 1178 1184 1153 1127 1086 1127 c 0
 1067 1127 1046 1137 1023 1157 c 1
 950 1208 830 1264 686 1264 c 0
 546 1264 390 1210 390 1077 c 0
EndSplineSet
EndChar

StartChar: T
Encoding: 84 84 51
Width: 1195
VWidth: 0
Flags: W
LayerCount: 2
Fore
SplineSet
125 1236 m 2
 56 1236 22 1285 22 1336 c 0
 22 1387 57 1438 125 1438 c 2
 1070 1438 l 2
 1137 1438 1172 1387 1172 1337 c 0
 1172 1286 1138 1236 1070 1236 c 2
 734 1236 l 1
 734 129 l 2
 734 43 667 -1 600 -1 c 0
 533 -1 466 43 466 129 c 2
 466 1236 l 1
 125 1236 l 2
EndSplineSet
EndChar

StartChar: Thorn
Encoding: 222 222 52
Width: 1331
VWidth: 0
Flags: W
LayerCount: 2
Fore
SplineSet
444 361 m 1
 444 128 l 2
 444 42 377 -1 309 -1 c 0
 242 -1 175 42 175 128 c 2
 175 1322 l 2
 175 1407 242 1450 309 1450 c 0
 377 1450 444 1407 444 1322 c 2
 444 1217 l 1
 715 1217 l 2
 1015 1217 1273 1100 1273 791 c 0
 1273 474 1007 361 691 361 c 2
 444 361 l 1
679 544 m 2
 863 544 1004 603 1004 791 c 0
 1004 977 865 1034 689 1034 c 2
 444 1034 l 1
 444 544 l 1
 679 544 l 2
EndSplineSet
EndChar

StartChar: U
Encoding: 85 85 53
Width: 1513
VWidth: 0
Flags: W
LayerCount: 2
Fore
SplineSet
168 1308 m 2
 168 1394 234 1437 302 1437 c 0
 369 1437 436 1394 436 1308 c 2
 436 499 l 2
 436 273 596 171 756 171 c 0
 918 171 1077 273 1077 499 c 2
 1077 1308 l 2
 1077 1394 1144 1437 1212 1437 c 0
 1279 1437 1346 1394 1346 1308 c 2
 1346 491 l 2
 1346 139 1079 -31 756 -31 c 0
 433 -31 168 139 168 491 c 2
 168 1308 l 2
EndSplineSet
EndChar

StartChar: V
Encoding: 86 86 58
Width: 1365
VWidth: 0
Flags: W
LayerCount: 2
Fore
SplineSet
680 208 m 1
 684 208 l 1
 1061 1346 l 1
 1078 1403 1128 1437 1181 1437 c 0
 1247 1437 1304 1387 1304 1323 c 1
 1302 1311 1302 1299 1298 1286 c 2
 904 173 l 1
 864 44 789 0 677 0 c 0
 568 0 496 39 453 173 c 1
 55 1281 l 2
 51 1293 49 1305 49 1318 c 0
 49 1385 110 1438 179 1438 c 0
 232 1438 280 1405 297 1349 c 1
 680 208 l 1
EndSplineSet
EndChar

StartChar: W
Encoding: 87 87 59
Width: 2070
VWidth: 0
Flags: W
LayerCount: 2
Fore
SplineSet
1033 1191 m 1
 725 150 l 1
 704 55 611 0 522 0 c 0
 440 0 359 46 335 150 c 1
 40 1287 l 2
 37 1297 36 1308 36 1319 c 0
 36 1390 105 1436 169 1436 c 0
 218 1436 264 1410 276 1349 c 1
 542 235 l 1
 859 1295 l 1
 880 1391 957 1439 1034 1439 c 0
 1110 1439 1190 1391 1211 1295 c 1
 1540 237 l 1
 1803 1347 l 1
 1815 1411 1863 1438 1912 1438 c 0
 1973 1438 2038 1394 2038 1326 c 0
 2038 1315 2037 1305 2034 1295 c 2
 1735 150 l 1
 1711 50 1623 -4 1538 -4 c 0
 1453 -4 1370 47 1346 150 c 1
 1033 1191 l 1
EndSplineSet
EndChar

StartChar: X
Encoding: 88 88 60
Width: 1321
VWidth: 0
Flags: W
LayerCount: 2
Fore
SplineSet
291 62 m 2
 259 16 222 -1 182 -1 c 0
 120 -1 64 48 64 107 c 0
 64 128 72 150 87 171 c 2
 502 739 l 1
 115 1264 l 2
 101 1283 94 1302 94 1323 c 0
 94 1384 159 1438 228 1438 c 0
 272 1438 311 1418 343 1372 c 2
 675 889 l 1
 1016 1372 l 1
 1047 1419 1087 1437 1126 1437 c 0
 1187 1437 1243 1389 1243 1331 c 0
 1243 1311 1236 1289 1220 1268 c 2
 825 739 l 1
 1233 177 l 2
 1247 157 1254 136 1254 117 c 0
 1254 54 1187 0 1119 0 c 0
 1079 0 1039 18 1010 63 c 1
 653 581 l 1
 291 62 l 2
EndSplineSet
EndChar

StartChar: Y
Encoding: 89 89 61
Width: 1331
VWidth: 0
Flags: W
LayerCount: 2
Fore
SplineSet
801 586 m 1
 801 129 l 2
 801 43 734 -1 666 -1 c 0
 599 -1 532 43 532 129 c 2
 532 581 l 1
 98 1271 l 2
 86 1289 84 1307 83 1323 c 1
 83 1388 154 1436 223 1436 c 0
 268 1436 311 1415 334 1366 c 1
 679 771 l 1
 683 771 l 1
 1031 1371 l 1
 1052 1418 1092 1436 1135 1436 c 0
 1196 1436 1257 1397 1257 1338 c 0
 1257 1323 1254 1305 1243 1288 c 2
 801 586 l 1
EndSplineSet
EndChar

StartChar: Z
Encoding: 90 90 64
Width: 1218
VWidth: 0
Flags: W
LayerCount: 2
Fore
SplineSet
192 0 m 2
 104 0 64 52 64 109 c 0
 64 136 73 162 90 187 c 2
 826 1240 l 1
 176 1240 l 2
 109 1240 77 1290 77 1339 c 0
 77 1389 109 1438 176 1438 c 2
 1037 1438 l 2
 1108 1438 1152 1391 1152 1332 c 0
 1152 1305 1144 1279 1125 1252 c 2
 385 198 l 1
 1047 198 l 2
 1114 198 1146 149 1146 99 c 0
 1146 50 1114 0 1047 0 c 2
 192 0 l 2
EndSplineSet
EndChar

StartChar: a
Encoding: 97 97 66
Width: 1080
VWidth: 0
Flags: W
HStem: -12 142.039<335.677 581.695> 490.003 122.997<381.844 725> 845 168<306.385 675.872>
VStem: 62 219<184.596 405.158> 725 221<21.3728 171 252.235 490 611 789.219>
LayerCount: 2
Fore
SplineSet
726 666 m 2
 726 801 645 845 528 845 c 0
 397.254 845 318.566 810.761 238 768 c 0
 227.352 762.349 216.846 759.834 206.806 759.834 c 0
 163.584 759.834 129.011 806.448 129.011 850.083 c 0
 129.011 870.356 136.474 889.986 154 904 c 0
 216.038 954.029 351.931 1013 541 1013 c 0
 774 1013 946 912 946 648 c 2
 946 103 l 1
 943 35 890 0 836 0 c 0
 784 0 735 32 732 96 c 1
 732 171 l 1
 671 67 548 -12 402 -12 c 0
 204 -12 62 107 62 275 c 0
 62 521 281 613 625 613 c 0
 652 613 697 612 726 611 c 1
 726 666 l 2
725 490 m 1
 708.328 490.003 l 2
 526.575 490.003 281 487.033 281 289 c 0
 281 203.585 352.791 130.039 452.165 130.039 c 0
 602.217 130.039 718.951 227.022 725 410 c 1
 725 490 l 1
EndSplineSet
EndChar

StartChar: acute
Encoding: 180 180 69
Width: 569
VWidth: 0
Flags: W
LayerCount: 2
Fore
SplineSet
171 1129 m 2
 155 1116 140 1110 124 1110 c 0
 93 1110 71 1134 71 1163 c 0
 71 1174 75 1186 82 1197 c 1
 334 1511 l 1
 353 1538 377 1548 401 1548 c 0
 456 1548 513 1495 513 1441 c 0
 513 1420 504 1401 487 1384 c 1
 171 1129 l 2
EndSplineSet
EndChar

StartChar: ae
Encoding: 230 230 71
Width: 1734
VWidth: 0
Flags: W
LayerCount: 2
Fore
SplineSet
726 679 m 2
 726 814 648 858 528 858 c 0
 395 858 312 822 233 782 c 0
 224 777 214 775 203 775 c 0
 164 775 134 809 134 845 c 0
 134 858 139 871 148 884 c 0
 212 980 350 1026 541 1026 c 0
 696 1026 805 976 860 863 c 1
 937 963 1050 1027 1195 1027 c 0
 1493 1027 1632 815 1637 529 c 0
 1637 493 1614 457 1566 457 c 2
 955 457 l 1
 958 277 1028 142 1228 142 c 0
 1336 142 1428 189 1500 226 c 0
 1513 233 1524 236 1535 236 c 0
 1570 236 1594 204 1594 168 c 0
 1594 60 1387 -24 1180 -24 c 0
 1016 -24 898 56 826 180 c 1
 752 37 594 -24 426 -24 c 0
 210 -24 62 85 62 275 c 0
 62 521 281 613 625 613 c 0
 652 613 697 612 726 611 c 1
 726 679 l 2
1429 588 m 1
 1418 764 1345 878 1197 878 c 0
 1049 878 967 751 956 588 c 1
 1429 588 l 1
725 480 m 1
 542 480 281 483 281 289 c 0
 281 175 365 122 472 119 c 1
 614 122 720 216 725 400 c 1
 725 480 l 1
EndSplineSet
EndChar

StartChar: ampersand
Encoding: 38 38 74
Width: 1581
VWidth: 0
Flags: W
LayerCount: 2
Fore
SplineSet
1254 854 m 1
 1265 897 1299 915 1338 915 c 0
 1390 915 1443 882 1443 822 c 0
 1443 812 1442 802 1439 792 c 1
 1421 665 1385 459 1289 309 c 1
 1421 167 l 2
 1442 144 1451 119 1451 95 c 0
 1451 36 1397 -18 1338 -18 c 0
 1313 -18 1284 -10 1261 17 c 1
 1126 164 l 1
 1011 44 860 -25 665 -25 c 0
 360 -25 89 123 89 407 c 0
 89 618 261 739 460 850 c 1
 353 954 252 1071 252 1213 c 0
 252 1415 454 1510 655 1510 c 0
 855 1510 1062 1420 1062 1224 c 0
 1062 1062 937 937 785 830 c 1
 1144 451 l 1
 1205 566 1243 726 1254 854 c 1
601 714 m 1
 501 661 337 531 337 424 c 0
 337 245 492 145 663 145 c 0
 799 145 899 202 998 293 c 1
 601 714 l 1
490 1213 m 0
 490 1127 568 1025 643 956 c 1
 728 1031 828 1111 828 1213 c 0
 828 1304 745 1346 661 1346 c 0
 574 1346 490 1308 490 1213 c 0
EndSplineSet
EndChar

StartChar: asciicircum
Encoding: 94 94 77
Width: 1315
VWidth: 0
Flags: W
LayerCount: 2
Fore
SplineSet
656 1224 m 1
 343 593 l 2
 326 558 300 545 272 545 c 0
 231 545 190 577 190 621 c 0
 190 632 192 643 198 655 c 2
 555 1355 l 2
 577 1398 617 1421 657 1421 c 0
 696 1421 735 1399 758 1355 c 2
 1113 655 l 2
 1119 643 1121 632 1121 621 c 0
 1121 578 1081 547 1040 547 c 0
 1013 547 986 560 967 593 c 1
 656 1224 l 1
EndSplineSet
EndChar

StartChar: asciitilde
Encoding: 126 126 78
Width: 1315
VWidth: 0
Flags: W
LayerCount: 2
Fore
SplineSet
782 1304 m 0
 809 1304 826 1321 842 1349 c 0
 859 1378 881 1389 902 1389 c 0
 933 1389 962 1362 962 1330 c 0
 962 1327 961 1322 960 1315 c 0
 937 1215 881 1158 778 1158 c 0
 680 1158 585 1244 518 1244 c 0
 487 1244 465 1226 442 1194 c 0
 427 1173 409 1162 386 1162 c 0
 355 1162 326 1185 326 1218 c 0
 326 1223 327 1230 329 1237 c 0
 356 1337 415 1389 512 1389 c 0
 624 1389 718 1304 782 1304 c 0
EndSplineSet
EndChar

StartChar: asterisk
Encoding: 42 42 79
Width: 1036
VWidth: 0
Flags: W
LayerCount: 2
Fore
SplineSet
629 1160 m 1
 841 1167 l 1
 880 1167 909 1139 909 1100 c 0
 909 1064 880 1034 841 1034 c 1
 627 1041 l 1
 737 863 l 2
 744 852 746 839 746 828 c 0
 746 796 719 763 678 763 c 0
 655 763 632 775 620 796 c 2
 516 982 l 1
 414 796 l 2
 402 775 378 763 355 763 c 0
 315 763 287 796 287 828 c 0
 287 841 290 852 297 863 c 2
 407 1041 l 1
 195 1034 l 1
 158 1034 127 1064 127 1100 c 0
 127 1139 156 1167 195 1167 c 1
 405 1160 l 1
 295 1338 l 2
 288 1349 285 1360 285 1372 c 0
 285 1407 314 1439 353 1439 c 0
 377 1439 398 1426 413 1405 c 1
 516 1214 l 1
 621 1405 l 2
 633 1427 657 1439 681 1439 c 0
 720 1439 748 1407 748 1372 c 1
 747 1360 745 1349 739 1338 c 2
 629 1160 l 1
EndSplineSet
EndChar

StartChar: at
Encoding: 64 64 80
Width: 1638
VWidth: 0
Flags: W
LayerCount: 2
Fore
SplineSet
562 623 m 0
 562 523 623 440 718 440 c 0
 816 440 928 500 960 600 c 1
 1030 833 l 2
 1034 847 1037 862 1037 875 c 0
 1037 963 946 1022 870 1022 c 0
 690 1022 562 790 562 623 c 0
1079 138 m 0
 1088 141 1097 142 1106 142 c 0
 1147 142 1170 110 1170 79 c 0
 1170 54 1156 29 1127 21 c 0
 1017 -12 911 -27 809 -27 c 0
 377 -27 50 255 50 731 c 0
 50 1235 489 1511 893 1511 c 0
 1239 1511 1560 1309 1560 877 c 0
 1560 549 1304 296 1099 296 c 0
 1029 296 957 328 933 397 c 1
 869 328 772 290 676 290 c 0
 488 290 375 439 375 615 c 0
 375 882 570 1184 857 1184 c 0
 954 1184 1044 1142 1091 1054 c 1
 1100 1082 l 2
 1113 1121 1143 1139 1179 1139 c 0
 1215 1139 1248 1118 1248 1077 c 0
 1248 1070 1247 1062 1245 1053 c 2
 1104 583 l 2
 1090 535 1081 498 1081 471 c 0
 1081 439 1095 420 1131 420 c 0
 1266 420 1409 632 1409 862 c 0
 1409 1219 1164 1382 895 1382 c 0
 567 1382 205 1142 205 721 c 0
 205 305 493 100 825 100 c 0
 909 100 994 111 1079 138 c 0
EndSplineSet
EndChar

StartChar: b
Encoding: 98 98 82
Width: 1203
VWidth: 0
Flags: W
LayerCount: 2
Fore
SplineSet
356 101 m 0
 348 34 295 0 240 0 c 0
 183 0 127 37 127 112 c 2
 127 1327 l 2
 127 1400 185 1437 244 1437 c 0
 303 1437 361 1401 361 1327 c 2
 361 830 l 1
 438 935 564 1013 707 1013 c 0
 985 1013 1124 772 1124 506 c 0
 1124 259 994 -12 712 -12 c 0
 568 -12 442 59 357 184 c 1
 357 182 356 103 356 101 c 0
361 514 m 0
 361 293 430 142 640 142 c 0
 841 142 882 361 882 509 c 0
 882 669 826 857 628 857 c 0
 438 857 361 712 361 514 c 0
EndSplineSet
EndChar

StartChar: backslash
Encoding: 92 92 83
Width: 626
VWidth: 0
Flags: W
LayerCount: 2
Fore
SplineSet
-5 1390 m 2
 -9 1402 -11 1413 -11 1423 c 0
 -11 1473 32 1502 75 1502 c 0
 110 1502 143 1484 158 1443 c 1
 631 21 l 2
 634 9 636 -1 636 -10 c 0
 636 -59 593 -89 550 -89 c 0
 517 -89 485 -72 471 -31 c 2
 -5 1390 l 2
EndSplineSet
EndChar

StartChar: bar
Encoding: 124 124 84
Width: 455
VWidth: 0
Flags: W
LayerCount: 2
Fore
SplineSet
143 1402 m 2
 143 1457 186 1486 228 1486 c 0
 271 1486 312 1457 312 1402 c 2
 312 -271 l 2
 312 -327 269 -356 227 -356 c 0
 184 -356 143 -327 143 -271 c 2
 143 1402 l 2
EndSplineSet
EndChar

StartChar: braceleft
Encoding: 123 123 85
Width: 694
VWidth: 0
Flags: W
LayerCount: 2
Fore
SplineSet
595 -54 m 2
 647 -54 673 -97 673 -140 c 0
 673 -183 647 -226 595 -226 c 2
 446 -226 l 2
 334 -226 234 -126 234 8 c 2
 234 316 l 2
 234 453 210 524 93 535 c 1
 36 535 9 580 9 624 c 0
 9 669 36 714 93 714 c 1
 210 725 234 796 234 935 c 2
 234 1245 l 2
 234 1377 334 1479 446 1479 c 2
 595 1479 l 2
 647 1479 673 1436 673 1392 c 0
 673 1349 647 1306 595 1306 c 2
 541 1306 l 2
 477 1306 457 1255 457 1162 c 2
 457 886 l 2
 457 721 351 655 303 631 c 1
 295 624 l 1
 332 611 457 546 457 365 c 2
 457 91 l 2
 457 -4 477 -54 541 -54 c 2
 595 -54 l 2
EndSplineSet
EndChar

StartChar: braceright
Encoding: 125 125 86
Width: 694
VWidth: 0
Flags: W
LayerCount: 2
Fore
SplineSet
151 -54 m 2
 215 -54 235 -4 235 91 c 2
 235 365 l 2
 235 546 360 611 397 624 c 1
 391 630 l 1
 346 649 235 718 235 886 c 2
 235 1162 l 2
 235 1255 215 1306 151 1306 c 2
 97 1306 l 2
 45 1306 19 1349 19 1392 c 0
 19 1436 45 1479 97 1479 c 2
 246 1479 l 2
 359 1479 458 1377 458 1245 c 2
 458 935 l 2
 458 796 482 725 599 714 c 1
 654 714 683 669 683 624 c 0
 683 580 654 535 599 535 c 1
 482 524 458 453 458 316 c 2
 458 8 l 2
 458 -126 359 -226 246 -226 c 2
 97 -226 l 2
 45 -226 19 -183 19 -140 c 0
 19 -97 45 -54 97 -54 c 2
 151 -54 l 2
EndSplineSet
EndChar

StartChar: bracketleft
Encoding: 91 91 87
Width: 694
VWidth: 0
Flags: W
LayerCount: 2
Fore
SplineSet
171 1327 m 2
 171 1387 219 1438 283 1438 c 2
 507 1438 l 2
 563 1438 592 1397 592 1353 c 0
 592 1311 563 1268 507 1268 c 2
 394 1268 l 1
 394 -50 l 1
 507 -50 l 2
 563 -50 592 -91 592 -134 c 0
 592 -177 564 -218 507 -221 c 1
 283 -221 l 2
 219 -221 171 -172 171 -111 c 2
 171 1327 l 2
EndSplineSet
EndChar

StartChar: bracketright
Encoding: 93 93 88
Width: 694
VWidth: 0
Flags: W
LayerCount: 2
Fore
SplineSet
522 -111 m 2
 522 -172 474 -221 410 -221 c 2
 186 -221 l 1
 129 -218 101 -177 101 -134 c 0
 101 -91 130 -50 186 -50 c 2
 299 -50 l 1
 299 1268 l 1
 186 1268 l 2
 130 1268 101 1311 101 1353 c 0
 101 1397 130 1438 186 1438 c 2
 410 1438 l 2
 474 1438 522 1387 522 1327 c 2
 522 -111 l 2
EndSplineSet
EndChar

StartChar: breve
Encoding: 728 728 89
Width: 569
VWidth: 0
Flags: W
LayerCount: 2
Fore
SplineSet
285 1217 m 0
 148 1217 40 1278 -7 1386 c 0
 -13 1400 -16 1413 -16 1425 c 0
 -16 1465 17 1489 52 1489 c 0
 79 1489 105 1476 121 1448 c 1
 161 1389 202 1368 285 1368 c 0
 368 1368 409 1389 449 1448 c 1
 465 1476 491 1489 518 1489 c 0
 553 1489 586 1465 586 1425 c 1
 585 1413 584 1401 577 1386 c 0
 530 1278 422 1217 285 1217 c 0
EndSplineSet
EndChar

StartChar: brokenbar
Encoding: 166 166 90
Width: 455
VWidth: 0
Flags: W
LayerCount: 2
Fore
SplineSet
141 629 m 2
 141 685 182 714 226 714 c 0
 269 714 310 685 310 629 c 2
 310 58 l 2
 310 2 267 -27 225 -27 c 0
 182 -27 141 2 141 58 c 2
 141 629 l 2
143 1365 m 2
 143 1421 184 1450 228 1450 c 0
 271 1450 312 1421 312 1365 c 2
 312 808 l 2
 312 752 269 723 227 723 c 0
 184 723 143 752 143 808 c 2
 143 1365 l 2
EndSplineSet
EndChar

StartChar: bullet
Encoding: 8226 8226 91
Width: 1024
VWidth: 0
Flags: W
LayerCount: 2
Fore
SplineSet
882 717 m 0
 882 522 716 359 511 359 c 0
 308 359 142 522 142 717 c 0
 142 917 308 1077 511 1077 c 0
 716 1077 882 917 882 717 c 0
EndSplineSet
EndChar

StartChar: c
Encoding: 99 99 92
Width: 999
VWidth: 0
Flags: W
LayerCount: 2
Fore
SplineSet
82 501 m 0
 82 777 283 1013 583 1013 c 0
 726 1013 903 961 903 864 c 0
 903 823 875 784 828 784 c 0
 821 784 814 785 806 787 c 1
 737 815 670 833 607 833 c 0
 433 833 323 688 323 503 c 0
 323 354 403 171 603 171 c 0
 667 171 747 190 822 223 c 1
 830 225 838 226 845 226 c 0
 890 226 919 188 919 147 c 0
 919 52 726 -12 573 -12 c 0
 269 -12 82 222 82 501 c 0
EndSplineSet
EndChar

StartChar: caron
Encoding: 711 711 93
Width: 569
VWidth: 0
Flags: W
LayerCount: 2
Fore
SplineSet
-10 1433 m 2
 -25 1453 -32 1469 -32 1487 c 0
 -32 1526 0 1552 39 1552 c 0
 66 1552 97 1539 122 1506 c 2
 284 1289 l 1
 445 1506 l 2
 469 1538 498 1552 525 1552 c 0
 564 1552 595 1524 595 1485 c 0
 595 1468 588 1450 575 1432 c 2
 385 1176 l 2
 356 1137 319 1118 284 1118 c 0
 247 1118 212 1139 181 1176 c 1
 -10 1433 l 2
EndSplineSet
EndChar

StartChar: cedilla
Encoding: 184 184 95
Width: 569
VWidth: 0
Flags: W
LayerCount: 2
Fore
SplineSet
244 7 m 1
 328 7 l 1
 286 -106 l 1
 299 -106 320 -104 327 -104 c 0
 423 -104 509 -141 509 -253 c 0
 509 -361 404 -416 295 -416 c 0
 180 -416 55 -388 55 -337 c 0
 55 -316 68 -295 91 -295 c 0
 95 -295 100 -296 105 -298 c 0
 156 -317 205 -332 260 -332 c 0
 336 -332 360 -301 360 -250 c 0
 360 -202 311 -181 261 -181 c 0
 250 -181 240 -183 231 -183 c 0
 203 -183 188 -169 188 -148 c 0
 188 -141 190 -132 194 -123 c 2
 244 7 l 1
EndSplineSet
EndChar

StartChar: cent
Encoding: 162 162 96
Width: 1046
VWidth: 0
Flags: W
LayerCount: 2
Fore
SplineSet
93 501 m 0
 93 777 279 993 527 1022 c 1
 527 1221 l 2
 527 1265 560 1288 595 1288 c 0
 630 1288 662 1266 662 1221 c 2
 662 1023 l 1
 782 1012 931 958 931 884 c 0
 931 848 906 804 862 804 c 0
 858 804 855 804 853 805 c 0
 774 828 708 847 640 847 c 0
 468 847 334 740 334 503 c 0
 334 284 449 159 636 159 c 0
 705 159 786 176 870 205 c 0
 873 206 877 206 883 206 c 0
 925 206 952 165 952 129 c 0
 952 112 946 98 935 88 c 1
 883 24 781 -10 662 -21 c 1
 662 -214 l 2
 662 -259 629 -282 594 -282 c 0
 559 -282 527 -259 527 -214 c 2
 527 -21 l 1
 260 3 93 218 93 501 c 0
EndSplineSet
EndChar

StartChar: circumflex
Encoding: 710 710 97
Width: 569
VWidth: 0
Flags: W
LayerCount: 2
Fore
SplineSet
181 1498 m 1
 212 1536 246 1555 283 1555 c 0
 318 1555 354 1537 385 1498 c 1
 575 1242 l 2
 590 1221 596 1205 596 1188 c 0
 596 1151 565 1123 526 1123 c 0
 500 1123 469 1135 445 1168 c 2
 284 1385 l 1
 122 1168 l 1
 95 1136 65 1122 38 1122 c 0
 -1 1122 -32 1149 -32 1186 c 1
 -33 1203 -25 1221 -10 1241 c 2
 181 1498 l 1
EndSplineSet
EndChar

StartChar: colon
Encoding: 58 58 98
Width: 615
VWidth: 0
Flags: W
LayerCount: 2
Fore
SplineSet
171 896 m 0
 171 964 224 1025 307 1025 c 0
 390 1025 443 964 443 896 c 0
 443 828 390 768 307 768 c 0
 224 768 171 828 171 896 c 0
171 126 m 0
 171 193 224 254 307 254 c 0
 390 254 443 193 443 126 c 0
 443 58 390 -3 307 -3 c 0
 224 -3 171 58 171 126 c 0
EndSplineSet
EndChar

StartChar: comma
Encoding: 44 44 99
Width: 615
VWidth: 0
Flags: W
LayerCount: 2
Fore
SplineSet
292 -232 m 1
 91 -232 l 1
 195 238 l 1
 454 238 l 1
 292 -232 l 1
EndSplineSet
EndChar

StartChar: copyright
Encoding: 169 169 100
Width: 1692
VWidth: 0
Flags: W
LayerCount: 2
Fore
SplineSet
854 99 m 0
 462 99 142 404 142 779 c 0
 142 1154 462 1461 854 1461 c 0
 1245 1461 1563 1154 1563 779 c 0
 1563 404 1245 99 854 99 c 0
282 779 m 0
 282 461 525 224 854 224 c 0
 1180 224 1423 461 1423 779 c 0
 1423 1096 1180 1333 854 1333 c 0
 525 1333 282 1096 282 779 c 0
1060 546 m 0
 1068 549 1075 551 1080 551 c 0
 1105 551 1126 526 1126 499 c 0
 1126 421 947 386 863 386 c 0
 662 386 476 520 476 783 c 0
 476 1044 658 1174 862 1174 c 0
 940 1174 1132 1140 1132 1068 c 0
 1132 1039 1112 1009 1081 1009 c 0
 1076 1009 1069 1011 1061 1014 c 0
 1001 1043 936 1059 876 1059 c 0
 736 1059 619 980 619 785 c 0
 619 596 743 500 885 500 c 0
 944 500 1001 517 1060 546 c 0
EndSplineSet
EndChar

StartChar: currency
Encoding: 164 164 101
Width: 1207
VWidth: 0
Flags: W
LayerCount: 2
Fore
SplineSet
609 190 m 0
 505 190 420 216 352 263 c 1
 266 176 l 2
 253 163 238 158 225 158 c 0
 193 158 165 186 165 218 c 0
 165 233 170 247 183 260 c 2
 266 343 l 1
 206 418 177 511 177 607 c 0
 177 700 206 792 263 867 c 1
 183 947 l 2
 171 959 165 973 165 988 c 0
 165 1020 193 1048 224 1048 c 0
 239 1048 253 1043 266 1030 c 2
 347 948 l 1
 415 996 501 1026 609 1026 c 0
 717 1026 804 997 872 948 c 1
 953 1030 l 2
 966 1043 980 1048 995 1048 c 0
 1027 1048 1055 1020 1055 988 c 0
 1055 975 1049 959 1037 947 c 2
 956 867 l 1
 1015 791 1042 699 1042 607 c 0
 1042 511 1013 418 953 342 c 1
 1037 260 l 2
 1050 247 1055 233 1055 218 c 0
 1055 186 1027 158 995 158 c 0
 980 158 966 163 954 176 c 2
 867 264 l 1
 799 217 714 190 609 190 c 0
609 913 m 0
 412 913 314 759 314 607 c 0
 314 455 412 302 609 302 c 0
 806 302 905 455 905 607 c 0
 905 759 806 913 609 913 c 0
EndSplineSet
EndChar

StartChar: d
Encoding: 100 100 102
Width: 1207
VWidth: 0
Flags: WO
HStem: -14 154<440.479 681.97> 857 156.299<439.922 704.424> 1417 20G<935.5 995>
VStem: 85 242<273.882 723.566> 848 235<24.4926 175 270.169 728.167 830 1414.3>
LayerCount: 2
Fore
SplineSet
1083 112 m 2
 1083 37 1026 0 968 0 c 0
 908.261 0 848 38.8336 848 116 c 2
 848 175 l 1
 759.496 51 640.819 -14 497 -14 c 0
 217 -14 85 254 85 506 c 0
 85 778.676 236.131 1013.3 531.676 1013.3 c 0
 681.025 1013.3 777.512 930.526 848 830 c 1
 848 1327 l 2
 848 1401 906 1437 965 1437 c 0
 1025 1437 1083 1400 1083 1327 c 2
 1083 112 l 2
581 857 m 0
 383 857 327 671 327 509 c 0
 327 356 368 140 569 140 c 0
 783.304 140 848 293.588 848 513 c 0
 848 709.571 774.171 857 581 857 c 0
EndSplineSet
EndChar

StartChar: dagger
Encoding: 8224 8224 103
Width: 1230
VWidth: 0
Flags: W
LayerCount: 2
Fore
SplineSet
721 951 m 1
 721 105 l 2
 721 36 668 1 615 1 c 0
 562 1 509 36 509 105 c 2
 509 951 l 1
 248 951 l 2
 192 951 163 995 163 1040 c 0
 163 1085 192 1131 248 1131 c 2
 509 1131 l 1
 509 1372 l 2
 509 1442 562 1477 615 1477 c 0
 668 1477 721 1441 721 1372 c 2
 721 1131 l 1
 978 1131 l 2
 1036 1131 1065 1086 1065 1042 c 0
 1065 996 1036 951 978 951 c 2
 721 951 l 1
EndSplineSet
EndChar

StartChar: daggerdbl
Encoding: 8225 8225 104
Width: 1230
VWidth: 0
Flags: W
LayerCount: 2
Fore
SplineSet
718 325 m 1
 718 104 l 2
 718 35 666 0 615 0 c 0
 563 0 512 35 512 104 c 2
 512 325 l 1
 250 325 l 2
 192 325 163 368 163 411 c 0
 163 454 193 498 250 498 c 2
 512 498 l 1
 512 976 l 1
 250 976 l 2
 192 976 163 1019 163 1062 c 0
 163 1105 193 1149 250 1149 c 2
 512 1149 l 1
 512 1372 l 2
 512 1442 563 1477 615 1477 c 0
 666 1477 718 1442 718 1372 c 2
 718 1149 l 1
 976 1149 l 2
 1035 1149 1065 1106 1065 1063 c 0
 1065 1020 1035 976 976 976 c 2
 718 976 l 1
 718 498 l 1
 976 498 l 2
 1035 498 1065 455 1065 412 c 0
 1065 369 1035 325 976 325 c 2
 718 325 l 1
EndSplineSet
EndChar

StartChar: degree
Encoding: 176 176 105
Width: 819
VWidth: 0
Flags: W
LayerCount: 2
Fore
SplineSet
713 1134 m 0
 713 971 575 840 410 840 c 0
 242 840 107 971 107 1134 c 0
 107 1297 241 1428 410 1428 c 0
 575 1428 713 1297 713 1134 c 0
226 1134 m 0
 226 1031 304 956 410 956 c 0
 514 956 594 1031 594 1134 c 0
 594 1234 514 1313 409 1313 c 0
 302 1313 226 1234 226 1134 c 0
EndSplineSet
EndChar

StartChar: dieresis
Encoding: 168 168 106
Width: 569
VWidth: 0
Flags: W
LayerCount: 2
Fore
SplineSet
77 1191 m 0
 1 1191 -48 1247 -48 1308 c 0
 -48 1369 1 1425 77 1425 c 0
 153 1425 201 1369 201 1308 c 0
 201 1247 153 1191 77 1191 c 0
493 1191 m 0
 417 1191 368 1247 368 1308 c 0
 368 1369 417 1425 493 1425 c 0
 569 1425 617 1369 617 1308 c 0
 617 1247 569 1191 493 1191 c 0
EndSplineSet
EndChar

StartChar: divide
Encoding: 247 247 107
Width: 1315
VWidth: 0
Flags: W
LayerCount: 2
Fore
SplineSet
207 431 m 2
 154 431 127 472 127 515 c 0
 127 559 154 600 207 600 c 2
 1117 600 l 2
 1170 600 1196 559 1196 515 c 0
 1196 472 1170 431 1117 431 c 2
 207 431 l 2
537 86 m 0
 537 145 583 199 658 199 c 0
 732 199 779 145 779 86 c 0
 779 26 732 -28 658 -28 c 0
 583 -28 537 26 537 86 c 0
537 946 m 0
 537 1005 583 1059 658 1059 c 0
 732 1059 779 1005 779 946 c 0
 779 886 732 832 658 832 c 0
 583 832 537 886 537 946 c 0
EndSplineSet
EndChar

StartChar: dollar
Encoding: 36 36 108
Width: 1319
VWidth: 0
Flags: W
LayerCount: 2
Fore
SplineSet
561 -40 m 1
 418 -35 273 5 183 39 c 0
 132 58 110 97 110 134 c 0
 110 183 146 229 198 229 c 0
 208 229 219 227 231 223 c 0
 334 189 438 155 615 155 c 0
 769 155 916 223 916 361 c 0
 916 553 644 580 402 664 c 0
 214 729 86 831 86 1037 c 0
 86 1265 286 1413 561 1434 c 1
 561 1511 l 2
 561 1551 591 1572 622 1572 c 0
 653 1572 682 1552 682 1511 c 2
 682 1434 l 1
 796 1429 929 1408 1026 1373 c 0
 1078 1354 1101 1313 1101 1275 c 0
 1101 1225 1067 1187 1007 1187 c 0
 998 1187 988 1189 977 1192 c 0
 888 1214 744 1241 634 1241 c 0
 500 1241 347 1187 347 1062 c 0
 347 948 440 891 550 852 c 0
 822 755 1182 716 1182 387 c 0
 1182 139 969 -18 682 -39 c 1
 682 -132 l 2
 682 -171 651 -192 620 -192 c 0
 589 -192 561 -173 561 -132 c 2
 561 -40 l 1
EndSplineSet
EndChar

StartChar: dotaccent
Encoding: 729 729 109
Width: 615
VWidth: 0
Flags: W
LayerCount: 2
Fore
SplineSet
148 1347 m 0
 148 1414 201 1475 284 1475 c 0
 368 1475 421 1414 421 1347 c 0
 421 1278 368 1218 284 1218 c 0
 201 1218 148 1278 148 1347 c 0
EndSplineSet
EndChar

StartChar: dotlessi
Encoding: 305 305 110
Width: 511
VWidth: 0
Flags: W
LayerCount: 2
Fore
SplineSet
138 885 m 2
 138 962 196 1002 256 1002 c 0
 315 1002 373 962 373 885 c 2
 373 116 l 2
 373 40 313 0 254 0 c 0
 195 0 138 38 138 116 c 2
 138 885 l 2
EndSplineSet
EndChar

StartChar: e
Encoding: 101 101 111
Width: 1158
VWidth: 0
Flags: W
HStem: -12 172<460.56 829.629> 465 120<323 853> 857 156<450.096 734.808>
VStem: 85 236<309.827 465 585 710.61>
LayerCount: 2
Fore
SplineSet
1041 533 m 0
 1041 497 1018 465 970 465 c 2
 321 465 l 1
 333 272 447 160 623 160 c 0
 730.64 160 822.333 195.357 922 250 c 0
 933.153 256.33 944.094 259.133 954.478 259.133 c 0
 997.174 259.133 1030.47 211.761 1030.47 167.487 c 0
 1030.47 148.856 1024.57 130.773 1011 117 c 0
 908.831 29.569 747.224 -12 600 -12 c 0
 324 -12 85 176 85 505 c 0
 85 752 277 1013 589 1013 c 0
 894.38 1013 1037.27 786 1041 533 c 0
853 585 m 1
 842.482 722 765.029 857 591 857 c 0
 429 857 334 714 323 585 c 1
 853 585 l 1
EndSplineSet
EndChar

StartChar: eight
Encoding: 56 56 116
Width: 1230
VWidth: 0
Flags: W
LayerCount: 2
Fore
SplineSet
383 733 m 1
 219 754 104 880 104 1049 c 0
 104 1304 329 1438 614 1438 c 0
 901 1438 1127 1304 1127 1049 c 0
 1127 878 1012 768 848 733 c 1
 848 731 l 1
 1043 684 1151 566 1151 385 c 0
 1151 128 933 -23 614 -23 c 0
 297 -23 79 128 79 385 c 0
 79 562 191 689 383 729 c 1
 383 733 l 1
354 1041 m 0
 354 893 463 822 615 822 c 0
 769 822 877 893 877 1041 c 0
 877 1198 747 1262 615 1262 c 0
 484 1262 354 1198 354 1041 c 0
340 403 m 0
 340 233 470 161 615 161 c 0
 759 161 889 233 889 403 c 0
 889 573 759 645 615 645 c 0
 470 645 340 573 340 403 c 0
EndSplineSet
EndChar

StartChar: ellipsis
Encoding: 8230 8230 117
Width: 1844
VWidth: 0
Flags: W
LayerCount: 2
Fore
SplineSet
171 126 m 0
 171 193 224 254 307 254 c 0
 390 254 443 193 443 126 c 0
 443 58 390 -3 307 -3 c 0
 224 -3 171 58 171 126 c 0
785 126 m 0
 785 193 838 254 921 254 c 0
 1005 254 1058 193 1058 126 c 0
 1058 58 1005 -3 921 -3 c 0
 838 -3 785 58 785 126 c 0
1400 126 m 0
 1400 193 1453 254 1536 254 c 0
 1619 254 1672 193 1672 126 c 0
 1672 58 1619 -3 1536 -3 c 0
 1453 -3 1400 58 1400 126 c 0
EndSplineSet
EndChar

StartChar: emdash
Encoding: 8212 8212 118
Width: 2048
VWidth: 0
Flags: W
LayerCount: 2
Fore
SplineSet
88 438 m 2
 30 438 1 485 1 532 c 0
 1 578 30 625 88 625 c 2
 1959 625 l 2
 2017 625 2046 578 2046 531 c 0
 2046 484 2017 438 1959 438 c 2
 88 438 l 2
EndSplineSet
EndChar

StartChar: endash
Encoding: 8211 8211 119
Width: 1024
VWidth: 0
Flags: W
LayerCount: 2
Fore
SplineSet
90 438 m 2
 31 438 1 485 1 532 c 0
 1 578 31 625 90 625 c 2
 933 625 l 2
 992 625 1021 578 1021 531 c 0
 1021 484 992 438 933 438 c 2
 90 438 l 2
EndSplineSet
EndChar

StartChar: equal
Encoding: 61 61 120
Width: 1315
VWidth: 0
Flags: W
LayerCount: 2
Fore
SplineSet
229 210 m 2
 181 210 144 247 144 292 c 0
 144 340 181 376 229 376 c 2
 1086 376 l 2
 1133 376 1171 340 1171 292 c 0
 1171 247 1134 210 1086 210 c 2
 229 210 l 2
229 626 m 2
 181 626 144 664 144 709 c 0
 144 756 181 793 229 793 c 2
 1086 793 l 2
 1133 793 1171 756 1171 709 c 0
 1171 664 1134 626 1086 626 c 2
 229 626 l 2
EndSplineSet
EndChar

StartChar: eth
Encoding: 240 240 122
Width: 1230
VWidth: 0
Flags: W
LayerCount: 2
Fore
SplineSet
611 1059 m 2
 564 1059 541 1092 541 1127 c 0
 541 1162 564 1197 611 1197 c 2
 788 1197 l 1
 763 1257 718 1338 673 1388 c 1
 658 1409 651 1429 651 1450 c 0
 651 1506 704 1551 764 1551 c 0
 863 1551 966 1397 1046 1197 c 1
 1225 1197 l 2
 1272 1197 1294 1163 1294 1128 c 0
 1294 1093 1272 1059 1225 1059 c 2
 1094 1059 l 1
 1131 915 1148 768 1148 636 c 0
 1148 270 1001 -34 590 -34 c 0
 275 -34 82 168 82 451 c 0
 82 727 260 904 533 904 c 0
 684 904 818 845 887 714 c 1
 890 716 l 1
 890 813 877 935 841 1059 c 1
 611 1059 l 2
599 149 m 0
 755 149 865 273 865 435 c 0
 865 616 764 742 580 742 c 0
 407 742 331 608 331 441 c 0
 331 264 427 149 599 149 c 0
EndSplineSet
EndChar

StartChar: exclam
Encoding: 33 33 123
Width: 785
VWidth: 0
Flags: W
LayerCount: 2
Fore
SplineSet
389 216 m 0
 480 216 528 161 528 109 c 0
 528 54 480 0 389 0 c 0
 297 0 249 54 249 109 c 0
 249 161 297 216 389 216 c 0
252 1364 m 2
 252 1367 251 1370 251 1374 c 0
 251 1443 318 1479 386 1479 c 0
 453 1479 516 1445 516 1370 c 1
 484 491 l 2
 481 415 431 375 383 375 c 0
 335 375 286 415 283 491 c 2
 252 1364 l 2
EndSplineSet
EndChar

StartChar: f
Encoding: 102 102 125
Width: 723
VWidth: 0
Flags: W
LayerCount: 2
Fore
SplineSet
456 852 m 1
 456 115 l 2
 456 38 398 0 338 0 c 0
 279 0 221 38 221 115 c 2
 221 852 l 1
 114 852 l 2
 58 852 31 888 31 927 c 0
 31 964 58 1001 114 1001 c 2
 221 1001 l 1
 221 1089 l 2
 221 1361 327 1458 515 1458 c 0
 571 1458 629 1450 684 1435 c 0
 721 1424 738 1392 738 1360 c 0
 738 1320 714 1282 669 1282 c 0
 634 1282 612 1289 585 1289 c 0
 473 1289 456 1237 456 1029 c 2
 456 1001 l 1
 598 1001 l 2
 654 1001 681 964 681 927 c 0
 681 888 654 852 598 852 c 2
 456 852 l 1
EndSplineSet
EndChar

StartChar: fi
Encoding: 64257 64257 126
Width: 1227
VWidth: 0
Flags: W
LayerCount: 2
Fore
SplineSet
854 845 m 1
 444 845 l 1
 444 116 l 2
 444 39 386 1 327 1 c 0
 268 1 210 39 210 116 c 2
 210 845 l 1
 99 845 l 2
 44 845 16 883 16 922 c 0
 16 961 43 999 99 999 c 2
 210 999 l 1
 210 1089 l 2
 210 1361 316 1458 503 1458 c 0
 559 1458 614 1451 668 1437 c 0
 707 1426 725 1392 725 1358 c 0
 725 1317 700 1276 653 1276 c 0
 621 1276 595 1283 566 1283 c 0
 451 1283 444 1237 444 1029 c 2
 444 999 l 1
 968 999 l 2
 1028 999 1089 962 1089 883 c 2
 1089 116 l 2
 1089 40 1029 0 970 0 c 0
 911 0 854 38 854 116 c 2
 854 845 l 1
1110 1333 m 0
 1110 1268 1052 1221 971 1221 c 0
 891 1221 832 1269 832 1333 c 0
 832 1397 891 1445 971 1445 c 0
 1052 1445 1110 1398 1110 1333 c 0
EndSplineSet
EndChar

StartChar: five
Encoding: 53 53 127
Width: 1230
VWidth: 0
Flags: W
LayerCount: 2
Fore
SplineSet
172 1317 m 2
 172 1401 215 1436 303 1436 c 2
 985 1436 l 2
 1044 1436 1073 1389 1073 1342 c 0
 1073 1295 1044 1248 985 1248 c 2
 387 1248 l 1
 381 793 l 1
 468 881 576 926 705 926 c 0
 964 926 1137 726 1137 451 c 0
 1137 160 912 -28 612 -28 c 0
 422 -28 251 39 176 184 c 1
 157 207 151 229 151 250 c 0
 151 297 187 335 231 335 c 0
 252 335 275 326 296 306 c 1
 353 207 466 158 591 158 c 0
 777 158 872 284 872 462 c 0
 872 634 781 755 629 755 c 0
 504 755 428 686 396 633 c 1
 375 586 325 559 277 559 c 0
 224 559 172 593 172 669 c 2
 172 1317 l 2
EndSplineSet
EndChar

StartChar: fl
Encoding: 64258 64258 128
Width: 1227
VWidth: 0
Flags: W
LayerCount: 2
Fore
SplineSet
444 845 m 1
 444 116 l 2
 444 39 386 1 327 1 c 0
 268 1 210 39 210 116 c 2
 210 845 l 1
 99 845 l 2
 44 845 16 883 16 922 c 0
 16 961 43 999 99 999 c 2
 210 999 l 1
 210 1089 l 2
 210 1357 336 1451 492 1454 c 1
 689 1454 784 1377 802 1346 c 1
 813 1406 865 1436 917 1436 c 0
 975 1436 1033 1398 1033 1321 c 2
 1033 116 l 2
 1033 40 973 0 914 0 c 0
 855 0 798 38 798 116 c 2
 798 1308 l 1
 571 1308 l 2
 466 1308 444 1242 444 1038 c 2
 444 999 l 1
 579 999 l 2
 635 999 662 961 662 922 c 0
 662 886 635 845 579 845 c 2
 444 845 l 1
EndSplineSet
EndChar

StartChar: florin
Encoding: 402 402 129
Width: 1230
VWidth: 0
Flags: W
LayerCount: 2
Fore
SplineSet
690 747 m 1
 641 511 591 250 534 5 c 0
 430 -437 250 -539 77 -539 c 0
 1 -539 -30 -505 -30 -468 c 0
 -30 -424 14 -377 82 -377 c 0
 164 -377 268 -324 345 7 c 0
 402 251 451 511 500 747 c 1
 359 747 l 2
 298 747 266 794 266 841 c 0
 266 887 298 934 359 934 c 2
 534 934 l 1
 617 1398 796 1582 1033 1582 c 0
 1101 1582 1133 1548 1133 1512 c 0
 1133 1472 1092 1429 1014 1429 c 0
 881 1429 792 1290 725 934 c 1
 895 934 l 2
 956 934 988 887 988 840 c 0
 988 793 956 747 895 747 c 2
 690 747 l 1
EndSplineSet
EndChar

StartChar: four
Encoding: 52 52 130
Width: 1230
VWidth: 0
Flags: W
LayerCount: 2
Fore
SplineSet
565 1306 m 1
 620 1405 692 1437 781 1437 c 0
 877 1437 963 1386 963 1258 c 2
 963 478 l 1
 1084 478 l 2
 1145 478 1175 432 1175 385 c 0
 1175 340 1145 293 1084 293 c 2
 962 293 l 1
 962 112 l 2
 962 36 898 -4 838 -4 c 0
 778 -4 715 36 712 112 c 1
 712 293 l 1
 160 293 l 2
 81 293 34 342 34 405 c 0
 34 428 40 455 56 480 c 2
 565 1306 l 1
260 478 m 1
 712 478 l 1
 712 1224 l 1
 260 478 l 1
EndSplineSet
EndChar

StartChar: foursuperior
Encoding: 8308 8308 131
Width: 751
VWidth: 0
Flags: W
LayerCount: 2
Fore
SplineSet
352 1349 m 1
 388 1412 425 1430 476 1430 c 0
 528 1430 566 1394 566 1322 c 2
 566 867 l 1
 639 867 l 2
 674 867 691 844 691 821 c 0
 691 798 674 775 639 775 c 2
 566 775 l 1
 566 660 l 2
 566 615 534 593 503 593 c 0
 471 593 439 615 439 660 c 2
 439 775 l 1
 111 775 l 2
 67 775 39 799 39 834 c 0
 39 849 43 863 52 876 c 2
 352 1349 l 1
165 865 m 1
 439 865 l 1
 439 1310 l 1
 165 865 l 1
EndSplineSet
EndChar

StartChar: fraction
Encoding: 8260 8260 132
Width: 626
VWidth: 0
Flags: W
LayerCount: 2
Fore
SplineSet
155 -7 m 1
 140 -48 109 -66 76 -66 c 0
 33 -66 -10 -36 -10 15 c 0
 -10 24 -9 35 -5 46 c 2
 468 1467 l 2
 482 1510 516 1527 551 1527 c 0
 594 1527 637 1497 637 1447 c 0
 637 1437 635 1426 631 1414 c 2
 155 -7 l 1
EndSplineSet
EndChar

StartChar: g
Encoding: 103 103 133
Width: 1207
VWidth: 0
Flags: W
HStem: -442 184<348.671 759.099> 0 152<450.232 702.792> 857 156<448.183 699.706>
VStem: 81 252<283.51 726.56> 856 224<-161.104 189 291.498 720.374 826 979.754>
LayerCount: 2
Fore
SplineSet
855 498 m 0
 855 698 782 857 587 857 c 0
 387 857 333 685 333 501 c 0
 333 256 447 155 589 152 c 1
 734 155 854 260 855 498 c 0
856 189 m 1
 783 60 648 0 514 0 c 0
 229 0 81 204 81 494 c 0
 81 767 223 1013 502 1013 c 0
 659 1013 772 949 861 826 c 1
 861 912 l 1
 869 971 918 1001 969 1001 c 0
 1024 1001 1080 964 1080 890 c 2
 1080 0 l 2
 1080 -324 866 -442 576 -442 c 0
 373.088 -442 252.669 -370 203 -327 c 1
 188.911 -312.766 182.87 -294.303 182.87 -275.308 c 0
 182.87 -229.401 218.153 -180.377 260.398 -180.377 c 0
 269.054 -180.377 278.003 -182.435 287 -187 c 0
 363 -219 433 -258 559 -258 c 0
 737 -258 856 -200 856 -20 c 2
 856 189 l 1
EndSplineSet
EndChar

StartChar: germandbls
Encoding: 223 223 134
Width: 1341
VWidth: 0
Flags: W
LayerCount: 2
Fore
SplineSet
562 146 m 0
 555 159 553 172 553 185 c 0
 553 233 598 270 642 270 c 0
 666 270 690 260 707 233 c 0
 746 173 798 132 877 132 c 0
 981 132 1051 187 1051 306 c 0
 1051 513 618 525 618 782 c 0
 618 963 857 1016 857 1150 c 0
 857 1265 747 1318 639 1318 c 0
 447 1318 384 1148 381 967 c 1
 381 113 l 2
 381 38 323 0 263 0 c 0
 205 0 147 37 147 113 c 2
 147 975 l 2
 147 1287 306 1470 661 1470 c 0
 885 1470 1093 1356 1093 1147 c 0
 1093 980 860 890 860 797 c 0
 860 630 1278 635 1278 318 c 0
 1278 98 1093 -25 888 -25 c 0
 740 -25 618 31 562 146 c 0
EndSplineSet
EndChar

StartChar: grave
Encoding: 96 96 135
Width: 569
VWidth: 0
Flags: W
LayerCount: 2
Fore
SplineSet
78 1384 m 2
 58 1400 50 1420 50 1440 c 0
 50 1493 108 1548 164 1548 c 0
 188 1548 212 1538 231 1511 c 1
 483 1197 l 1
 490 1186 494 1174 494 1163 c 0
 494 1134 472 1109 441 1109 c 0
 426 1109 410 1116 394 1129 c 2
 78 1384 l 2
EndSplineSet
EndChar

StartChar: greater
Encoding: 62 62 136
Width: 1315
VWidth: 0
Flags: W
LayerCount: 2
Fore
SplineSet
1119 594 m 2
 1168 573 1190 536 1190 500 c 0
 1190 461 1167 424 1116 403 c 2
 251 40 l 2
 240 36 229 34 220 34 c 0
 173 34 142 75 142 116 c 0
 142 144 155 169 190 184 c 2
 952 500 l 1
 188 831 l 2
 155 845 141 871 141 898 c 0
 141 938 172 979 217 979 c 0
 228 979 239 977 250 972 c 2
 1119 594 l 2
EndSplineSet
EndChar

StartChar: greaterequal
Encoding: 8805 8805 137
Width: 1203
VWidth: 0
Flags: W
LayerCount: 2
Fore
SplineSet
208 276 m 2
 198 271 187 269 176 269 c 0
 129 269 98 310 98 351 c 0
 98 378 112 405 147 420 c 2
 908 735 l 1
 145 1066 l 2
 112 1080 97 1106 97 1133 c 0
 97 1173 128 1214 173 1214 c 0
 184 1214 195 1212 206 1207 c 2
 1075 829 l 1
 1124 809 1147 773 1147 734 c 0
 1147 697 1124 660 1073 639 c 2
 208 276 l 2
181 2 m 2
 136 2 114 37 114 72 c 0
 114 107 136 141 181 141 c 2
 1027 141 l 2
 1072 141 1095 106 1095 71 c 0
 1095 36 1072 2 1027 2 c 2
 181 2 l 2
EndSplineSet
EndChar

StartChar: guillemotleft
Encoding: 171 171 138
Width: 1195
VWidth: 0
Flags: W
LayerCount: 2
Fore
SplineSet
385 947 m 1
 412 992 446 1009 479 1009 c 0
 523 1009 563 976 563 933 c 0
 563 922 561 911 556 901 c 2
 389 537 l 1
 556 172 l 2
 561 162 563 151 563 140 c 0
 563 97 523 64 479 64 c 0
 447 64 410 81 385 126 c 2
 151 537 l 1
 385 947 l 1
825 947 m 1
 852 992 887 1009 920 1009 c 0
 964 1009 1004 976 1004 933 c 0
 1004 922 1002 911 997 901 c 2
 829 537 l 1
 997 172 l 2
 1002 162 1004 151 1004 140 c 0
 1004 97 964 64 920 64 c 0
 887 64 852 81 825 126 c 1
 591 537 l 1
 825 947 l 1
EndSplineSet
EndChar

StartChar: guillemotright
Encoding: 187 187 139
Width: 1195
VWidth: 0
Flags: W
LayerCount: 2
Fore
SplineSet
1040 537 m 1
 806 126 l 1
 779 81 744 64 712 64 c 0
 668 64 628 97 628 140 c 0
 628 151 630 162 635 172 c 2
 803 537 l 1
 635 901 l 2
 630 911 628 922 628 933 c 0
 628 976 668 1009 712 1009 c 0
 744 1009 779 992 806 947 c 1
 1040 537 l 1
600 537 m 1
 366 126 l 1
 339 81 303 64 271 64 c 0
 227 64 188 97 188 140 c 0
 188 151 190 162 195 172 c 2
 362 537 l 1
 195 901 l 2
 190 911 188 922 188 933 c 0
 188 976 227 1009 271 1009 c 0
 303 1009 339 992 366 947 c 1
 600 537 l 1
EndSplineSet
EndChar

StartChar: guilsinglleft
Encoding: 8249 8249 140
Width: 615
VWidth: 0
Flags: W
LayerCount: 2
Fore
SplineSet
322 947 m 1
 349 992 383 1009 416 1009 c 0
 460 1009 500 976 500 933 c 0
 500 922 498 911 493 901 c 2
 325 537 l 1
 493 172 l 2
 498 162 500 151 500 140 c 0
 500 97 460 64 416 64 c 0
 384 64 347 81 322 126 c 2
 88 537 l 1
 322 947 l 1
EndSplineSet
EndChar

StartChar: guilsinglright
Encoding: 8250 8250 141
Width: 615
VWidth: 0
Flags: W
LayerCount: 2
Fore
SplineSet
530 537 m 1
 296 126 l 1
 269 81 233 64 201 64 c 0
 157 64 117 97 117 140 c 0
 117 151 119 162 124 172 c 2
 292 537 l 1
 124 901 l 2
 119 911 117 922 117 933 c 0
 117 976 157 1009 201 1009 c 0
 233 1009 269 992 296 947 c 1
 530 537 l 1
EndSplineSet
EndChar

StartChar: h
Encoding: 104 104 142
Width: 1195
VWidth: 0
Flags: W
LayerCount: 2
Fore
SplineSet
824 633 m 2
 824 785 733 857 626 857 c 0
 493 857 372 773 372 592 c 2
 372 113 l 2
 372 38 314 0 254 0 c 0
 195 0 137 38 137 113 c 2
 137 1327 l 2
 137 1400 195 1437 255 1437 c 0
 314 1437 372 1400 372 1327 c 2
 372 815 l 1
 425 923 554 1013 707 1013 c 0
 894 1013 1058 899 1058 631 c 2
 1058 113 l 2
 1058 38 1000 0 940 0 c 0
 882 0 824 38 824 113 c 2
 824 633 l 2
EndSplineSet
EndChar

StartChar: hungarumlaut
Encoding: 733 733 143
Width: 569
VWidth: 0
Flags: W
LayerCount: 2
Fore
SplineSet
410 1129 m 2
 394 1116 380 1110 363 1110 c 0
 332 1110 310 1134 310 1163 c 0
 310 1174 312 1186 321 1197 c 2
 573 1511 l 1
 592 1538 616 1548 641 1548 c 0
 696 1548 754 1493 754 1441 c 0
 754 1422 746 1400 726 1384 c 2
 410 1129 l 2
35 1129 m 2
 19 1116 4 1110 -11 1110 c 0
 -42 1110 -66 1134 -66 1163 c 1
 -65 1174 -63 1186 -54 1197 c 2
 198 1511 l 1
 217 1538 241 1548 266 1548 c 0
 321 1548 379 1493 379 1441 c 0
 379 1421 371 1400 351 1384 c 2
 35 1129 l 2
EndSplineSet
EndChar

StartChar: hyphen
Encoding: 45 45 144
Width: 649
VWidth: 0
Flags: W
LayerCount: 2
Fore
SplineSet
133 438 m 2
 80 438 37 480 37 531 c 0
 37 584 78 625 133 625 c 2
 516 625 l 2
 571 625 612 584 612 531 c 0
 612 480 569 438 516 438 c 2
 133 438 l 2
EndSplineSet
EndChar

StartChar: i
Encoding: 105 105 145
Width: 511
VWidth: 0
Flags: W
LayerCount: 2
Fore
SplineSet
394 1333 m 0
 394 1268 336 1221 255 1221 c 0
 175 1221 116 1269 116 1333 c 0
 116 1397 175 1445 256 1445 c 0
 336 1445 394 1397 394 1333 c 0
138 885 m 2
 138 961 196 1001 256 1001 c 0
 315 1001 373 961 373 885 c 2
 373 116 l 2
 373 40 313 0 254 0 c 0
 195 0 138 38 138 116 c 2
 138 885 l 2
EndSplineSet
EndChar

StartChar: increment
Encoding: 916 916 150
AltUni2: 002206.ffffffff.0
Width: 1269
VWidth: 0
Flags: W
LayerCount: 2
Fore
SplineSet
1181 213 m 1
 89 213 l 1
 547 1488 l 2
 564 1534 600 1554 638 1554 c 0
 676 1554 709 1531 725 1488 c 2
 1181 213 l 1
636 1315 m 1
 629 1315 l 1
 289 333 l 1
 978 333 l 1
 636 1315 l 1
EndSplineSet
EndChar

StartChar: infinity
Encoding: 8734 8734 151
Width: 1640
VWidth: 0
Flags: W
LayerCount: 2
Fore
SplineSet
1537 600 m 2
 1537 381 1375 250 1205 250 c 0
 1080 250 965 318 822 493 c 1
 710 365 599 250 428 250 c 0
 255 250 102 393 102 590 c 0
 102 792 249 937 445 937 c 0
 603 937 719 829 831 696 c 1
 927 803 1032 937 1214 937 c 0
 1399 937 1537 804 1537 603 c 2
 1537 600 l 2
447 374 m 2
 573 374 672 495 752 586 c 1
 664 700 577 816 434 816 c 0
 310 816 234 716 234 591 c 0
 234 474 317 374 444 374 c 2
 447 374 l 2
1203 816 m 2
 1069 816 967 674 895 597 c 1
 1028 441 1105 374 1211 374 c 0
 1336 374 1406 488 1406 591 c 0
 1406 728 1321 816 1206 816 c 2
 1203 816 l 2
EndSplineSet
EndChar

StartChar: integral
Encoding: 8747 8747 152
Width: 793
VWidth: 0
Flags: W
LayerCount: 2
Fore
SplineSet
639 1779 m 0
 722 1779 758 1740 758 1702 c 0
 758 1663 721 1626 656 1626 c 0
 528 1626 481 1508 481 1215 c 0
 481 887 512 549 512 198 c 0
 512 -245 354 -347 181 -347 c 0
 89 -347 49 -304 49 -262 c 0
 49 -222 84 -184 144 -184 c 2
 163 -184 l 2
 247 -184 322 -113 322 200 c 0
 322 555 289 901 289 1237 c 0
 289 1623 420 1779 639 1779 c 0
EndSplineSet
EndChar

StartChar: j
Encoding: 106 106 153
Width: 519
VWidth: 0
Flags: W
HStem: -366.236 160.236<-61.75 39.8475> 981 20G<234 293.5> 1221 224<150.731 376.269>
VStem: 124 279<1249.34 1416.66> 146 235<-183.491 976.733>
LayerCount: 2
Fore
SplineSet
381 3 m 2xe8
 381 -266.694 330.999 -353.037 40 -366 c 0
 36.7454 -366.159 33.5706 -366.236 30.4747 -366.236 c 0
 -42.7168 -366.236 -71.8898 -322.896 -71.8898 -281.285 c 0
 -71.8898 -243.896 -48.3368 -207.903 -12 -206 c 0
 121.681 -199 146 -188 146 -35 c 2
 146 885 l 2
 146 961 204 1001 264 1001 c 0
 323 1001 381 961 381 885 c 2
 381 3 l 2xe8
403 1333 m 0xf0
 403 1269 344 1221 263 1221 c 0
 183 1221 124 1269 124 1333 c 0
 124 1397 183 1445 264 1445 c 0
 344 1445 403 1397 403 1333 c 0xf0
EndSplineSet
EndChar

StartChar: k
Encoding: 107 107 154
Width: 1047
VWidth: 0
Flags: W
LayerCount: 2
Fore
SplineSet
380 533 m 1
 380 117 l 2
 380 40 320 0 261 0 c 0
 203 0 146 40 146 117 c 2
 146 1321 l 2
 146 1397 204 1437 264 1437 c 0
 322 1437 380 1397 380 1321 c 2
 380 599 l 1
 775 959 l 2
 804 986 829 1001 858 1001 c 0
 913 1001 965 958 965 907 c 0
 965 886 959 866 940 850 c 2
 608 565 l 1
 986 152 l 2
 1002 134 1004 115 1004 98 c 0
 1004 44 948 0 891 0 c 0
 859 0 832 18 805 49 c 2
 380 533 l 1
EndSplineSet
EndChar

StartChar: l
Encoding: 108 108 155
Width: 511
VWidth: 0
Flags: W
LayerCount: 2
Fore
SplineSet
138 1321 m 2
 138 1397 196 1437 256 1437 c 0
 315 1437 373 1397 373 1321 c 2
 373 116 l 2
 373 40 313 0 254 0 c 0
 195 0 138 38 138 116 c 2
 138 1321 l 2
EndSplineSet
EndChar

StartChar: less
Encoding: 60 60 156
Width: 1315
VWidth: 0
Flags: W
LayerCount: 2
Fore
SplineSet
192 406 m 2
 143 427 120 464 120 500 c 0
 120 537 143 576 194 597 c 2
 1059 960 l 2
 1068 963 1079 965 1090 965 c 0
 1137 965 1170 924 1170 884 c 0
 1170 856 1155 830 1120 816 c 2
 359 500 l 1
 1122 169 l 2
 1157 154 1170 129 1170 101 c 0
 1170 61 1139 21 1094 21 c 0
 1083 21 1072 23 1061 28 c 2
 192 406 l 2
EndSplineSet
EndChar

StartChar: lessequal
Encoding: 8804 8804 157
Width: 1203
VWidth: 0
Flags: W
LayerCount: 2
Fore
SplineSet
131 646 m 1
 82 666 59 703 59 740 c 0
 59 777 82 815 133 836 c 2
 999 1199 l 2
 1009 1204 1020 1206 1031 1206 c 0
 1075 1206 1109 1164 1109 1123 c 0
 1109 1096 1095 1069 1060 1055 c 2
 298 739 l 1
 1062 409 l 2
 1095 395 1109 368 1109 341 c 0
 1109 301 1078 261 1034 261 c 0
 1023 261 1011 263 1000 268 c 2
 131 646 l 1
165 2 m 2
 120 2 98 37 98 72 c 0
 98 107 120 141 165 141 c 2
 1011 141 l 2
 1056 141 1079 106 1079 71 c 0
 1079 36 1056 2 1011 2 c 2
 165 2 l 2
EndSplineSet
EndChar

StartChar: logicalnot
Encoding: 172 172 158
Width: 1315
VWidth: 0
Flags: W
LayerCount: 2
Fore
SplineSet
1172 317 m 2
 1172 261 1129 234 1087 234 c 0
 1043 234 1002 261 1002 317 c 2
 1002 644 l 1
 224 644 l 2
 171 644 145 685 145 729 c 0
 145 771 171 814 224 814 c 2
 1085 814 l 2
 1129 814 1172 771 1172 728 c 2
 1172 317 l 2
EndSplineSet
EndChar

StartChar: lozenge
Encoding: 9674 9674 159
Width: 1269
VWidth: 0
Flags: W
LayerCount: 2
Fore
SplineSet
720 -38 m 2
 696 -80 662 -97 629 -97 c 0
 596 -97 566 -76 544 -38 c 2
 123 721 l 1
 547 1488 l 2
 570 1529 603 1549 636 1549 c 0
 669 1549 702 1529 725 1488 c 2
 1148 721 l 1
 720 -38 l 2
636 1315 m 1
 629 1315 l 1
 307 727 l 1
 632 131 l 1
 639 131 l 1
 960 717 l 1
 636 1315 l 1
EndSplineSet
EndChar

StartChar: lslash
Encoding: 322 322 160
Width: 511
VWidth: 0
Flags: W
LayerCount: 2
Fore
SplineSet
138 771 m 1
 22 704 l 1
 11 699 0 697 -11 697 c 0
 -59 697 -93 742 -93 786 c 0
 -93 814 -79 842 -46 857 c 1
 138 957 l 1
 138 1321 l 2
 138 1397 196 1437 256 1437 c 0
 315 1437 373 1397 373 1321 c 2
 373 1060 l 1
 528 1144 l 2
 539 1150 551 1152 562 1151 c 1
 608 1151 642 1107 642 1063 c 0
 642 1035 628 1007 595 992 c 1
 373 874 l 1
 373 116 l 2
 373 40 313 0 254 0 c 0
 195 0 138 38 138 116 c 2
 138 771 l 1
EndSplineSet
EndChar

StartChar: m
Encoding: 109 109 161
Width: 1877
VWidth: 0
Flags: W
LayerCount: 2
Fore
SplineSet
1505 633 m 2
 1505 785 1412 857 1310 857 c 0
 1182 857 1056 781 1056 582 c 2
 1056 113 l 2
 1056 38 998 0 938 0 c 0
 880 0 822 38 822 113 c 2
 822 633 l 2
 822 785 727 857 626 857 c 0
 494 857 374 772 374 594 c 2
 374 112 l 2
 374 37 314 0 255 0 c 0
 197 0 139 37 139 112 c 2
 139 891 l 2
 139 964 197 1001 257 1001 c 0
 314 1001 368 967 373 898 c 0
 373 896 374 823 374 817 c 1
 429 926 560 1013 708 1013 c 0
 853 1013 984 943 1034 784 c 1
 1124 954 1259 1013 1392 1013 c 0
 1579 1013 1740 897 1740 631 c 2
 1740 112 l 2
 1740 37 1680 0 1621 0 c 0
 1563 0 1505 37 1505 112 c 2
 1505 633 l 2
EndSplineSet
EndChar

StartChar: middot
Encoding: 183 183 162
Width: 615
VWidth: 0
Flags: W
LayerCount: 2
Fore
SplineSet
168 519 m 0
 168 587 223 650 307 650 c 0
 391 650 446 587 446 519 c 0
 446 448 391 386 307 386 c 0
 223 386 168 448 168 519 c 0
EndSplineSet
EndChar

StartChar: minus
Encoding: 8722 8722 163
Width: 763
VWidth: 0
Flags: W
LayerCount: 2
Fore
SplineSet
133 438 m 2
 72 438 39 485 39 532 c 0
 39 579 70 625 133 625 c 2
 625 625 l 2
 686 625 718 578 718 531 c 0
 718 484 686 438 625 438 c 2
 133 438 l 2
EndSplineSet
EndChar

StartChar: mu
Encoding: 181 181 164
Width: 1195
VWidth: 0
Flags: W
LayerCount: 2
Fore
SplineSet
137 886 m 2
 137 961 195 999 254 999 c 0
 314 999 372 961 372 886 c 2
 372 355 l 2
 372 203 464 131 569 131 c 0
 702 131 813 213 824 383 c 1
 824 887 l 2
 824 962 882 999 941 999 c 0
 1000 999 1058 962 1058 887 c 2
 1058 112 l 2
 1058 37 1000 0 940 0 c 0
 882 0 824 37 824 109 c 2
 824 181 l 1
 771 64 641 5 515 5 c 0
 462 5 414 16 372 38 c 1
 372 -167 l 2
 372 -243 312 -283 252 -283 c 0
 194 -283 137 -245 137 -167 c 2
 137 886 l 2
EndSplineSet
EndChar

StartChar: multiply
Encoding: 215 215 165
Width: 1315
VWidth: 0
Flags: W
LayerCount: 2
Fore
SplineSet
659 620 m 1
 902 863 l 2
 919 880 939 889 960 889 c 0
 1005 889 1045 849 1045 804 c 0
 1045 785 1039 765 1020 746 c 2
 777 503 l 1
 1012 268 l 2
 1028 251 1036 230 1036 212 c 0
 1036 167 992 123 947 123 c 1
 925 122 908 131 892 148 c 2
 657 383 l 1
 414 139 l 2
 395 120 376 114 357 114 c 0
 313 114 270 155 270 200 c 0
 270 221 279 240 296 257 c 2
 539 500 l 1
 303 736 l 2
 286 753 279 773 279 792 c 0
 279 837 322 881 367 881 c 0
 386 881 407 873 424 856 c 2
 659 620 l 1
EndSplineSet
EndChar

StartChar: n
Encoding: 110 110 166
Width: 1195
VWidth: 0
Flags: W
LayerCount: 2
Fore
SplineSet
137 891 m 2
 137 964 195 1001 255 1001 c 0
 314 1001 369 966 372 895 c 1
 372 817 l 1
 425 925 556 1013 707 1013 c 0
 894 1013 1058 899 1058 631 c 2
 1058 113 l 2
 1058 38 1000 0 940 0 c 0
 882 0 824 38 824 113 c 2
 824 633 l 2
 824 785 733 857 626 857 c 0
 494 857 372 773 372 594 c 2
 372 113 l 2
 372 38 314 0 254 0 c 0
 195 0 137 38 137 113 c 2
 137 891 l 2
EndSplineSet
EndChar

StartChar: nine
Encoding: 57 57 167
Width: 1230
VWidth: 0
Flags: W
LayerCount: 2
Fore
SplineSet
213 45 m 1
 178 60 164 91 164 122 c 0
 164 173 201 227 254 227 c 0
 262 227 270 226 278 223 c 0
 370 190 457 172 532 172 c 0
 827 172 893 438 893 720 c 0
 893 721 890 721 890 722 c 1
 820 593 686 535 535 535 c 0
 260 535 82 710 82 982 c 0
 82 1262 276 1462 592 1462 c 0
 1004 1462 1152 1161 1152 800 c 0
 1152 380 1030 -24 531 -24 c 0
 423 -24 309 0 213 45 c 1
601 1281 m 0
 428 1281 332 1168 332 992 c 0
 332 827 408 695 582 695 c 0
 767 695 868 818 868 998 c 0
 868 1158 758 1281 601 1281 c 0
EndSplineSet
EndChar

StartChar: notequal
Encoding: 8800 8800 168
Width: 1180
VWidth: 0
Flags: W
LayerCount: 2
Fore
SplineSet
176 692 m 2
 120 692 93 734 93 775 c 0
 93 818 120 858 176 858 c 2
 620 858 l 1
 724 1097 l 2
 741 1136 771 1152 805 1152 c 0
 849 1152 891 1122 891 1074 c 1
 890 1061 889 1048 883 1035 c 2
 803 858 l 1
 1033 858 l 2
 1088 858 1115 817 1115 774 c 0
 1115 733 1088 692 1033 692 c 2
 735 692 l 1
 625 441 l 1
 1033 441 l 2
 1089 441 1116 399 1116 358 c 0
 1116 315 1089 274 1033 274 c 2
 556 274 l 1
 448 31 l 2
 431 -8 401 -25 369 -25 c 0
 325 -25 284 6 284 55 c 1
 283 67 286 79 292 93 c 2
 374 274 l 1
 176 274 l 2
 122 274 94 315 94 358 c 0
 94 401 121 441 176 441 c 2
 441 441 l 1
 552 692 l 1
 176 692 l 2
EndSplineSet
EndChar

StartChar: numbersign
Encoding: 35 35 170
Width: 1230
VWidth: 0
Flags: W
LayerCount: 2
Fore
SplineSet
700 445 m 1
 463 445 l 1
 402 30 l 2
 395 -18 358 -41 322 -41 c 0
 282 -41 241 -13 241 39 c 0
 241 44 241 49 242 52 c 2
 299 445 l 1
 179 445 l 2
 128 445 102 484 102 523 c 0
 102 562 128 600 179 600 c 2
 321 600 l 1
 358 858 l 1
 236 858 l 2
 185 858 159 897 159 936 c 0
 159 975 185 1013 236 1013 c 2
 380 1013 l 1
 435 1392 l 2
 442 1441 479 1464 518 1464 c 0
 558 1464 598 1437 598 1386 c 0
 598 1381 598 1375 597 1370 c 2
 544 1013 l 1
 781 1013 l 1
 836 1392 l 2
 843 1441 880 1464 919 1464 c 0
 959 1464 999 1437 999 1386 c 0
 999 1381 999 1375 998 1370 c 2
 945 1013 l 1
 1050 1013 l 2
 1101 1013 1127 974 1127 935 c 0
 1127 896 1102 858 1050 858 c 2
 923 858 l 1
 886 600 l 1
 993 600 l 2
 1044 600 1070 561 1070 522 c 0
 1070 483 1045 445 993 445 c 2
 864 445 l 1
 803 30 l 2
 796 -18 760 -41 723 -41 c 0
 683 -41 643 -14 643 37 c 0
 643 44 643 49 644 52 c 2
 700 445 l 1
485 600 m 1
 722 600 l 1
 759 858 l 1
 522 858 l 1
 485 600 l 1
EndSplineSet
EndChar

StartChar: o
Encoding: 111 111 171
Width: 1207
VWidth: 0
Flags: W
HStem: -12 148<461.512 744.671> 863 150<462.353 742.739>
VStem: 79 247<290.762 709.244> 880 248<291.628 704.963>
LayerCount: 2
Fore
SplineSet
79 499 m 0
 79 755 246 1013 603 1013 c 0
 954 1013 1128 763 1128 499 c 0
 1128 252 965 -12 603 -12 c 0
 242 -12 79 250 79 499 c 0
326 499 m 0
 326 333.261 399 136 603 136 c 0
 807 136 880 335.294 880 499 c 0
 880 662.698 806 863 603 863 c 0
 400 863 326 664.732 326 499 c 0
EndSplineSet
EndChar

StartChar: oe
Encoding: 339 339 175
Width: 1857
VWidth: 0
Flags: W
LayerCount: 2
Fore
SplineSet
1760 529 m 0
 1760 493 1737 457 1689 457 c 2
 1058 457 l 1
 1061 277 1134 142 1344 142 c 0
 1447 142 1541 188 1609 226 c 0
 1620 232 1632 236 1644 236 c 0
 1679 236 1703 204 1703 168 c 0
 1703 55 1496 -30 1296 -30 c 0
 1132 -30 1014 50 941 177 c 1
 866 57 747 -24 580 -24 c 0
 240 -24 76 224 76 499 c 0
 76 779 240 1026 580 1026 c 0
 750 1026 870 946 944 829 c 1
 1020 949 1141 1030 1304 1030 c 0
 1612 1030 1755 816 1760 529 c 0
317 499 m 0
 317 310 393 130 580 130 c 0
 760 130 832 303 837 490 c 1
 837 681 769 870 580 870 c 0
 393 870 317 690 317 499 c 0
1543 588 m 1
 1532 764 1453 878 1297 878 c 0
 1148 878 1067 751 1056 588 c 1
 1543 588 l 1
EndSplineSet
EndChar

StartChar: one
Encoding: 49 49 178
Width: 1230
VWidth: 0
Flags: W
LayerCount: 2
Fore
SplineSet
339 1047 m 2
 324 1037 306 1033 291 1033 c 0
 240 1033 200 1079 200 1127 c 0
 200 1154 213 1183 245 1202 c 2
 605 1419 l 2
 626 1431 651 1435 674 1437 c 1
 738 1437 799 1394 799 1307 c 2
 800 126 l 2
 800 42 733 0 669 0 c 0
 604 0 539 42 539 126 c 2
 538 1173 l 1
 339 1047 l 2
EndSplineSet
EndChar

StartChar: onehalf
Encoding: 189 189 179
Width: 1655
VWidth: 0
Flags: W
LayerCount: 2
Fore
SplineSet
616 -25 m 2
 604 -61 576 -76 547 -76 c 0
 508 -76 471 -49 471 -5 c 0
 471 2 473 11 476 22 c 2
 943 1399 l 2
 955 1435 985 1451 1014 1451 c 0
 1053 1451 1090 1425 1090 1380 c 0
 1090 1373 1088 1363 1085 1352 c 2
 616 -25 l 2
1246 721 m 0
 1187 721 1127 697 1084 676 c 0
 1075 671 1065 669 1055 669 c 0
 1024 669 1002 693 1002 720 c 0
 1002 785 1169 837 1263 837 c 0
 1414 837 1530 764 1530 628 c 0
 1530 457 1307 245 1140 112 c 1
 1482 112 l 2
 1518 112 1537 83 1537 55 c 0
 1537 27 1519 -1 1482 -1 c 2
 1043 -1 l 2
 988 -1 963 29 963 66 c 0
 963 136 1064 188 1174 304 c 1
 1289 411 1383 535 1383 614 c 0
 1383 686 1317 721 1246 721 c 0
219 1184 m 2
 210 1179 201 1176 191 1176 c 0
 162 1176 139 1202 139 1229 c 0
 139 1244 146 1260 165 1272 c 2
 371 1398 l 2
 382 1405 395 1408 408 1408 c 0
 441 1408 470 1384 470 1335 c 2
 470 660 l 2
 470 616 436 594 403 594 c 0
 368 594 336 616 336 660 c 2
 336 1257 l 1
 219 1184 l 2
EndSplineSet
EndChar

StartChar: onequarter
Encoding: 188 188 180
Width: 1634
VWidth: 0
Flags: W
LayerCount: 2
Fore
SplineSet
623 -25 m 2
 611 -61 581 -76 553 -76 c 0
 516 -76 478 -49 478 -6 c 0
 478 1 480 11 483 22 c 2
 949 1399 l 2
 961 1435 991 1451 1020 1451 c 0
 1059 1451 1096 1425 1096 1381 c 0
 1096 1373 1094 1363 1091 1352 c 2
 623 -25 l 2
1206 757 m 1
 1241 821 1280 838 1329 838 c 0
 1382 838 1420 802 1420 730 c 2
 1420 275 l 1
 1493 275 l 2
 1528 275 1544 252 1544 229 c 0
 1544 206 1528 183 1493 183 c 2
 1420 183 l 1
 1420 68 l 2
 1420 23 1388 1 1357 1 c 0
 1325 1 1293 23 1293 68 c 2
 1293 183 l 1
 964 183 l 2
 920 183 893 207 893 242 c 0
 893 254 897 269 906 284 c 2
 1206 757 l 1
1019 273 m 1
 1293 273 l 1
 1293 718 l 1
 1019 273 l 1
219 1184 m 2
 210 1179 201 1176 191 1176 c 0
 162 1176 139 1202 139 1229 c 0
 139 1244 146 1260 165 1272 c 2
 371 1398 l 2
 382 1405 395 1408 408 1408 c 0
 441 1408 470 1384 470 1335 c 2
 470 660 l 2
 470 616 436 594 403 594 c 0
 368 594 336 616 336 660 c 2
 336 1257 l 1
 219 1184 l 2
EndSplineSet
EndChar

StartChar: onesuperior
Encoding: 185 185 181
Width: 700
VWidth: 0
Flags: W
LayerCount: 2
Fore
SplineSet
241 1184 m 2
 232 1179 223 1176 213 1176 c 0
 184 1176 161 1202 161 1229 c 0
 161 1244 168 1260 187 1272 c 2
 393 1398 l 2
 404 1405 417 1408 430 1408 c 0
 463 1408 492 1384 492 1335 c 2
 492 660 l 2
 492 616 458 594 425 594 c 0
 390 594 358 616 358 660 c 2
 358 1257 l 1
 241 1184 l 2
EndSplineSet
EndChar

StartChar: ordfeminine
Encoding: 170 170 182
Width: 1080
VWidth: 0
Flags: W
LayerCount: 2
Fore
SplineSet
635 1252 m 2
 635 1353 574 1388 483 1388 c 0
 382 1388 321 1359 260 1330 c 0
 253 1327 246 1325 237 1325 c 0
 208 1325 186 1348 186 1375 c 0
 186 1386 189 1396 197 1405 c 1
 245 1477 351 1512 491 1512 c 0
 668 1512 795 1435 795 1238 c 2
 794 813 l 2
 794 762 754 738 715 738 c 0
 678 738 640 761 639 808 c 2
 638 866 l 1
 598 769 492 718 390 718 c 0
 243 718 133 801 133 945 c 0
 133 1129 299 1200 557 1200 c 0
 578 1200 612 1199 635 1198 c 1
 635 1252 l 2
635 1100 m 1
 494 1100 294 1104 294 955 c 0
 294 867 359 827 439 824 c 1
 548 827 630 899 635 1039 c 1
 635 1100 l 1
EndSplineSet
EndChar

StartChar: ordmasculine
Encoding: 186 186 183
Width: 1075
VWidth: 0
Flags: W
LayerCount: 2
Fore
SplineSet
123 1127 m 0
 123 1327 247 1512 523 1512 c 0
 801 1512 925 1327 925 1127 c 0
 925 926 801 742 523 742 c 0
 247 742 123 926 123 1127 c 0
311 1125 m 0
 311 996 374 859 524 859 c 0
 674 859 736 996 736 1128 c 0
 736 1257 674 1394 524 1394 c 0
 374 1394 311 1257 311 1125 c 0
EndSplineSet
EndChar

StartChar: oslash
Encoding: 248 248 184
Width: 1207
VWidth: 0
Flags: W
LayerCount: 2
Fore
SplineSet
79 499 m 0
 79 779 248 1026 603 1026 c 0
 664 1026 717 1020 764 1007 c 1
 831 1142 l 2
 845 1170 871 1183 895 1183 c 0
 931 1183 965 1159 965 1120 c 0
 965 1109 964 1098 957 1086 c 1
 894 953 l 1
 1051 862 1128 686 1128 499 c 0
 1128 224 958 -24 603 -24 c 0
 547 -24 496 -18 450 -6 c 1
 386 -136 l 2
 371 -165 348 -177 325 -177 c 0
 290 -177 255 -151 255 -112 c 0
 255 -103 257 -92 263 -80 c 2
 322 43 l 1
 157 131 79 313 79 499 c 0
892 499 m 0
 892 596 859 702 784 767 c 1
 528 135 l 1
 547 126 572 121 603 121 c 0
 809 121 892 303 892 499 c 0
314 499 m 0
 314 403 349 288 432 229 c 1
 685 863 l 1
 662 874 634 879 603 879 c 0
 399 879 314 697 314 499 c 0
EndSplineSet
EndChar

StartChar: overscore
Encoding: 175 175 186
Width: 569
VWidth: 0
Flags: W
LayerCount: 2
Fore
SplineSet
56 1285 m 2
 4 1285 -21 1324 -21 1364 c 0
 -21 1403 4 1443 56 1443 c 2
 518 1443 l 2
 569 1443 593 1403 593 1364 c 0
 593 1324 569 1285 518 1285 c 2
 56 1285 l 2
EndSplineSet
EndChar

StartChar: p
Encoding: 112 112 187
Width: 1207
VWidth: 0
Flags: W
LayerCount: 2
Fore
SplineSet
361 820 m 1
 439 939 564 1013 712 1013 c 0
 992 1013 1124 753 1124 494 c 0
 1124 232 982 -12 707 -12 c 0
 561 -12 442 68 361 175 c 1
 361 -272 l 2
 361 -345 303 -382 244 -382 c 0
 185 -382 127 -345 127 -272 c 2
 127 890 l 2
 127 964 184 1001 242 1001 c 0
 298 1001 353 967 361 900 c 1
 361 820 l 1
362 497 m 0
 362 320 434 148 632 148 c 0
 830 148 882 340 882 501 c 0
 882 653 834 857 634 857 c 0
 427 857 362 723 362 497 c 0
EndSplineSet
EndChar

StartChar: paragraph
Encoding: 182 182 188
Width: 1313
VWidth: 0
Flags: W
LayerCount: 2
Fore
SplineSet
943 1438 m 2
 1075 1438 1081 1367 1081 1291 c 2
 1080 -124 l 2
 1080 -181 1036 -209 992 -209 c 0
 948 -209 904 -181 904 -124 c 2
 904 1294 l 1
 695 1294 l 1
 695 -124 l 2
 695 -180 651 -209 606 -209 c 0
 562 -209 518 -181 518 -124 c 2
 518 701 l 1
 285 701 113 871 113 1066 c 0
 113 1290 274 1438 558 1438 c 2
 943 1438 l 2
EndSplineSet
EndChar

StartChar: parenleft
Encoding: 40 40 189
Width: 637
VWidth: 0
Flags: W
LayerCount: 2
Fore
SplineSet
350 -173 m 0
 238 88 152 353 152 618 c 0
 152 891 242 1157 351 1426 c 0
 370 1473 405 1493 441 1493 c 0
 489 1493 535 1456 535 1402 c 0
 535 1389 533 1376 528 1363 c 0
 439 1115 386 864 386 620 c 0
 386 384 436 136 526 -111 c 0
 530 -124 533 -136 533 -149 c 0
 533 -203 488 -240 440 -240 c 0
 405 -240 370 -220 350 -173 c 0
EndSplineSet
EndChar

StartChar: parenright
Encoding: 41 41 190
Width: 637
VWidth: 0
Flags: W
LayerCount: 2
Fore
SplineSet
292 -173 m 0
 272 -220 236 -240 201 -240 c 0
 154 -240 109 -203 109 -150 c 0
 109 -137 111 -124 116 -111 c 0
 204 134 256 381 256 621 c 0
 256 861 203 1114 114 1363 c 0
 109 1375 107 1387 107 1401 c 0
 107 1454 154 1493 202 1493 c 0
 238 1493 272 1473 291 1426 c 0
 400 1158 490 889 490 618 c 0
 490 351 403 87 292 -173 c 0
EndSplineSet
EndChar

StartChar: partialdiff
Encoding: 8706 8706 191
Width: 1223
VWidth: 0
Flags: W
LayerCount: 2
Fore
SplineSet
220 1373 m 0
 210 1369 200 1367 190 1367 c 0
 143 1367 106 1414 106 1459 c 0
 106 1488 120 1517 159 1535 c 0
 256 1578 380 1622 532 1622 c 0
 871 1622 1121 1361 1121 827 c 0
 1121 331 907 -25 542 -25 c 0
 227 -25 81 235 81 462 c 0
 81 789 289 997 550 997 c 0
 745 997 886 821 899 804 c 1
 901 814 901 832 901 849 c 0
 901 1248 760 1441 519 1441 c 0
 407 1441 305 1408 220 1373 c 0
564 152 m 2
 736 152 851 379 875 615 c 1
 851 698 747 824 596 824 c 0
 433 824 305 661 305 461 c 0
 305 282 410 152 562 152 c 2
 564 152 l 2
EndSplineSet
EndChar

StartChar: percent
Encoding: 37 37 192
Width: 2083
VWidth: 0
Flags: W
LayerCount: 2
Fore
SplineSet
538 1294 m 0
 413 1294 367 1178 367 1022 c 0
 367 866 413 750 538 750 c 0
 664 750 710 866 710 1022 c 0
 710 1178 664 1294 538 1294 c 0
1343 1416 m 2
 1360 1447 1383 1458 1406 1458 c 0
 1439 1458 1469 1430 1469 1393 c 0
 1469 1381 1466 1369 1459 1356 c 2
 684 -33 l 1
 669 -57 649 -67 629 -67 c 0
 594 -67 560 -39 560 -3 c 0
 560 6 561 16 568 27 c 2
 1343 1416 l 2
538 1428 m 0
 800 1428 893 1212 893 1022 c 0
 893 790 756 616 538 616 c 0
 314 616 184 780 184 1022 c 0
 184 1254 322 1428 538 1428 c 0
1544 780 m 0
 1807 780 1898 564 1898 374 c 0
 1898 142 1763 -33 1544 -33 c 0
 1320 -33 1190 131 1190 374 c 0
 1190 606 1328 780 1544 780 c 0
1544 646 m 0
 1418 646 1373 530 1373 374 c 0
 1373 218 1418 102 1544 102 c 0
 1669 102 1715 218 1715 374 c 0
 1715 530 1669 646 1544 646 c 0
EndSplineSet
EndChar

StartChar: period
Encoding: 46 46 193
Width: 615
VWidth: 0
Flags: W
LayerCount: 2
Fore
SplineSet
171 126 m 0
 171 193 224 254 307 254 c 0
 390 254 443 193 443 126 c 0
 443 58 390 -3 307 -3 c 0
 224 -3 171 58 171 126 c 0
EndSplineSet
EndChar

StartChar: perthousand
Encoding: 8240 8240 194
Width: 2322
VWidth: 0
Flags: W
LayerCount: 2
Fore
SplineSet
368 1301 m 0
 240 1301 198 1180 198 1031 c 0
 198 881 240 760 368 760 c 0
 496 760 538 881 538 1031 c 0
 538 1180 496 1301 368 1301 c 0
1093 1416 m 2
 1110 1447 1132 1458 1155 1458 c 0
 1190 1458 1219 1430 1219 1393 c 0
 1219 1381 1216 1369 1209 1356 c 2
 433 -33 l 1
 418 -57 399 -67 379 -67 c 0
 344 -67 310 -39 310 -3 c 0
 310 6 311 16 318 27 c 2
 1093 1416 l 2
373 1428 m 0
 577 1428 701 1258 701 1036 c 0
 701 812 587 633 364 633 c 0
 159 633 36 803 36 1026 c 0
 36 1250 150 1428 373 1428 c 0
1933 763 m 0
 2137 763 2260 593 2260 370 c 0
 2260 147 2148 -33 1924 -33 c 0
 1719 -33 1596 138 1596 360 c 0
 1596 584 1710 763 1933 763 c 0
1928 636 m 0
 1800 636 1758 514 1758 365 c 0
 1758 216 1800 95 1928 95 c 0
 2056 95 2098 216 2098 365 c 0
 2098 514 2056 636 1928 636 c 0
1183 763 m 0
 1388 763 1511 593 1511 370 c 0
 1511 147 1398 -33 1174 -33 c 0
 970 -33 846 138 846 360 c 0
 846 584 960 763 1183 763 c 0
1179 636 m 0
 1051 636 1009 514 1009 365 c 0
 1009 216 1051 95 1179 95 c 0
 1307 95 1349 216 1349 365 c 0
 1349 514 1307 636 1179 636 c 0
EndSplineSet
EndChar

StartChar: pi
Encoding: 960 960 195
Width: 1285
VWidth: 0
Flags: W
LayerCount: 2
Fore
SplineSet
1049 900 m 1
 1049 449 l 2
 1049 325 1066 181 1082 109 c 0
 1083 102 1084 95 1084 88 c 0
 1084 29 1034 -6 981 -6 c 0
 932 -6 880 24 859 93 c 1
 844 133 826 233 826 396 c 2
 826 900 l 1
 501 900 l 1
 493 638 433 267 361 82 c 0
 334 14 280 -15 231 -15 c 0
 180 -15 137 15 137 70 c 1
 138 81 138 93 143 106 c 0
 220 319 276 611 287 871 c 0
 287 882 288 893 288 900 c 1
 207 900 l 2
 139 900 105 945 105 990 c 0
 105 1035 139 1080 207 1080 c 2
 1130 1080 l 2
 1188 1080 1217 1035 1217 990 c 0
 1217 945 1188 900 1130 900 c 2
 1049 900 l 1
EndSplineSet
EndChar

StartChar: plus
Encoding: 43 43 196
Width: 1315
VWidth: 0
Flags: W
LayerCount: 2
Fore
SplineSet
742 584 m 1
 1086 584 l 2
 1134 584 1172 548 1172 501 c 0
 1172 456 1134 418 1086 418 c 2
 742 418 l 1
 742 86 l 2
 742 41 705 3 657 3 c 0
 609 3 572 39 572 86 c 2
 572 418 l 1
 229 418 l 2
 181 418 144 456 144 501 c 0
 144 548 181 584 229 584 c 2
 572 584 l 1
 572 918 l 2
 572 965 609 1002 657 1002 c 0
 704 1002 742 965 742 918 c 2
 742 584 l 1
EndSplineSet
EndChar

StartChar: plusminus
Encoding: 177 177 197
Width: 1315
VWidth: 0
Flags: W
LayerCount: 2
Fore
SplineSet
742 320 m 2
 742 266 699 238 656 238 c 0
 613 238 572 265 572 320 c 2
 572 535 l 1
 229 535 l 2
 173 535 146 577 146 618 c 0
 146 661 173 701 229 701 c 2
 572 701 l 1
 572 918 l 2
 572 972 615 999 657 999 c 0
 701 999 742 972 742 918 c 2
 742 701 l 1
 1086 701 l 2
 1142 701 1170 661 1170 618 c 0
 1170 577 1141 535 1086 535 c 2
 742 535 l 1
 742 320 l 2
1086 166 m 2
 1142 166 1170 126 1170 83 c 0
 1170 42 1141 0 1086 0 c 2
 229 0 l 2
 173 0 146 42 146 83 c 0
 146 126 173 166 229 166 c 2
 1086 166 l 2
EndSplineSet
EndChar

StartChar: product
Encoding: 8719 8719 198
Width: 1540
VWidth: 0
Flags: W
LayerCount: 2
Fore
SplineSet
1258 1253 m 1
 1257 -90 l 2
 1257 -162 1202 -197 1147 -197 c 0
 1092 -197 1037 -162 1037 -90 c 2
 1037 1253 l 1
 501 1253 l 1
 501 -90 l 2
 501 -162 446 -197 391 -197 c 0
 336 -197 281 -162 281 -90 c 2
 281 1253 l 1
 147 1253 l 2
 83 1253 51 1300 51 1348 c 0
 51 1396 83 1445 147 1445 c 2
 1397 1445 l 2
 1457 1445 1487 1396 1487 1349 c 0
 1487 1300 1457 1253 1397 1253 c 2
 1258 1253 l 1
EndSplineSet
EndChar

StartChar: q
Encoding: 113 113 199
Width: 1207
VWidth: 0
Flags: W
LayerCount: 2
Fore
SplineSet
849 820 m 1
 849 822 850 900 850 903 c 0
 859 968 913 1001 966 1001 c 0
 1023 1001 1079 964 1079 890 c 2
 1079 -270 l 2
 1079 -343 1021 -380 961 -380 c 0
 902 -380 844 -344 844 -270 c 2
 844 175 l 1
 765 68 644 -12 499 -12 c 0
 224 -12 82 232 82 494 c 0
 82 755 215 1013 494 1013 c 0
 645 1013 773 936 849 820 c 1
844 497 m 0
 844 719 780 857 572 857 c 0
 372 857 324 652 324 501 c 0
 324 353 370 148 574 148 c 0
 772 148 844 320 844 497 c 0
EndSplineSet
EndChar

StartChar: question
Encoding: 63 63 200
Width: 1047
VWidth: 0
Flags: W
LayerCount: 2
Fore
SplineSet
207 1280 m 0
 200 1278 193 1277 188 1277 c 0
 140 1277 107 1325 107 1375 c 0
 107 1416 130 1460 189 1476 c 0
 289 1503 393 1512 489 1512 c 0
 726 1512 927 1394 927 1134 c 0
 927 968 834 872 724 770 c 1
 602 650 538 621 533 539 c 1
 533 540 l 1
 533 526 l 2
 533 515 534 495 534 459 c 0
 534 398 481 366 425 366 c 0
 369 366 314 397 314 463 c 2
 314 578 l 1
 322 790 659 883 659 1106 c 0
 659 1258 548 1306 431 1306 c 0
 389 1306 288 1299 207 1280 c 0
290 97 m 0
 290 164 343 224 426 224 c 0
 510 224 563 164 563 97 c 0
 563 28 510 -33 426 -33 c 0
 343 -33 290 28 290 97 c 0
EndSplineSet
EndChar

StartChar: quotedbl
Encoding: 34 34 202
Width: 762
VWidth: 0
Flags: W
LayerCount: 2
Fore
SplineSet
436 1387 m 2
 436 1390 435 1393 435 1396 c 0
 435 1450 486 1478 537 1478 c 0
 587 1478 636 1451 636 1396 c 1
 606 1042 l 2
 601 989 567 962 535 962 c 0
 503 962 471 989 466 1042 c 2
 436 1387 l 2
119 1387 m 2
 119 1390 118 1393 118 1396 c 0
 118 1450 170 1478 220 1478 c 0
 271 1478 320 1451 320 1396 c 1
 289 1042 l 2
 284 989 251 962 219 962 c 0
 187 962 153 989 149 1042 c 2
 119 1387 l 2
EndSplineSet
EndChar

StartChar: quotedblbase
Encoding: 8222 8222 203
Width: 1161
VWidth: 0
Flags: W
LayerCount: 2
Fore
SplineSet
393 -227 m 1
 191 -227 l 1
 295 243 l 1
 554 243 l 1
 393 -227 l 1
825 -227 m 1
 623 -227 l 1
 727 243 l 1
 986 243 l 1
 825 -227 l 1
EndSplineSet
EndChar

StartChar: quotedblleft
Encoding: 8220 8220 204
Width: 1161
VWidth: 0
Flags: W
LayerCount: 2
Fore
SplineSet
335 1438 m 1
 536 1438 l 1
 432 968 l 1
 174 968 l 1
 335 1438 l 1
770 1438 m 1
 971 1438 l 1
 867 968 l 1
 609 968 l 1
 770 1438 l 1
EndSplineSet
EndChar

StartChar: quotedblright
Encoding: 8221 8221 205
Width: 1161
VWidth: 0
Flags: W
LayerCount: 2
Fore
SplineSet
824 968 m 1
 623 968 l 1
 727 1438 l 1
 986 1438 l 1
 824 968 l 1
390 968 m 1
 188 968 l 1
 293 1438 l 1
 551 1438 l 1
 390 968 l 1
EndSplineSet
EndChar

StartChar: quoteleft
Encoding: 8216 8216 206
Width: 615
VWidth: 0
Flags: W
LayerCount: 2
Fore
SplineSet
282 1438 m 1
 483 1438 l 1
 379 968 l 1
 121 968 l 1
 282 1438 l 1
EndSplineSet
EndChar

StartChar: quoteright
Encoding: 8217 8217 207
Width: 615
VWidth: 0
Flags: W
LayerCount: 2
Fore
SplineSet
333 968 m 1
 132 968 l 1
 236 1438 l 1
 495 1438 l 1
 333 968 l 1
EndSplineSet
EndChar

StartChar: quotesinglbase
Encoding: 8218 8218 208
Width: 615
VWidth: 0
Flags: W
LayerCount: 2
Fore
SplineSet
333 -227 m 1
 132 -227 l 1
 236 243 l 1
 495 243 l 1
 333 -227 l 1
EndSplineSet
EndChar

StartChar: quotesingle
Encoding: 39 39 209
Width: 615
VWidth: 0
Flags: W
LayerCount: 2
Fore
SplineSet
206 1387 m 2
 206 1390 205 1393 205 1396 c 0
 205 1450 257 1478 307 1478 c 0
 358 1478 407 1451 407 1396 c 1
 377 1042 l 2
 372 989 337 962 306 962 c 0
 274 962 242 989 237 1042 c 2
 206 1387 l 2
EndSplineSet
EndChar

StartChar: r
Encoding: 114 114 210
Width: 763
VWidth: 0
Flags: W
LayerCount: 2
Fore
SplineSet
137 891 m 2
 137 964 197 1001 256 1001 c 0
 311 1001 368 967 371 898 c 0
 371 897 372 818 372 817 c 1
 401 928 488 1013 634 1013 c 0
 702 1013 737 965 737 918 c 0
 737 871 702 822 629 822 c 0
 482 822 372 738 372 559 c 2
 372 111 l 2
 372 37 312 0 253 0 c 0
 195 0 137 36 137 111 c 2
 137 891 l 2
EndSplineSet
EndChar

StartChar: registered
Encoding: 174 174 212
Width: 1696
VWidth: 0
Flags: W
LayerCount: 2
Fore
SplineSet
586 1051 m 2
 586 1102 612 1140 668 1140 c 2
 910 1140 l 2
 1122 1140 1200 1071 1200 926 c 0
 1200 784 1107 735 978 719 c 1
 1146 473 l 2
 1153 462 1155 453 1155 442 c 0
 1155 407 1122 381 1087 381 c 0
 1066 381 1049 391 1037 411 c 2
 848 716 l 1
 718 716 l 1
 718 443 l 2
 718 402 684 381 651 381 c 0
 618 381 586 400 586 443 c 2
 586 1051 l 2
718 1031 m 1
 718 824 l 1
 735 825 753 826 771 826 c 0
 815 826 859 823 900 823 c 0
 992 823 1063 837 1063 933 c 0
 1063 1013 992 1031 897 1031 c 2
 718 1031 l 1
852 72 m 0
 456 72 131 382 131 757 c 0
 131 1136 456 1447 852 1447 c 0
 1247 1447 1570 1136 1570 757 c 0
 1570 382 1247 72 852 72 c 0
275 757 m 0
 275 437 521 197 852 197 c 0
 1181 197 1427 437 1427 757 c 0
 1427 1077 1181 1316 852 1316 c 0
 521 1316 275 1077 275 757 c 0
EndSplineSet
EndChar

StartChar: ring
Encoding: 730 730 213
Width: 569
VWidth: 0
Flags: W
LayerCount: 2
Fore
SplineSet
78 1312 m 0
 78 1421 173 1513 285 1513 c 0
 397 1513 491 1421 491 1312 c 0
 491 1203 397 1110 285 1110 c 0
 173 1110 78 1203 78 1312 c 0
390 1312 m 0
 390 1365 341 1414 285 1414 c 0
 229 1414 180 1365 180 1312 c 0
 180 1260 229 1210 285 1210 c 0
 338 1210 390 1260 390 1312 c 0
EndSplineSet
EndChar

StartChar: s
Encoding: 115 115 214
Width: 1046
VWidth: 0
Flags: W
LayerCount: 2
Fore
SplineSet
325 743 m 0
 326 619 551 626 765 547 c 1
 892 510 969 429 969 309 c 0
 969 103 769 -12 521 -12 c 0
 297 -12 105 68 105 164 c 0
 105 201 138 230 183 230 c 0
 236 230 368 142 540 142 c 0
 647 142 751 187 751 292 c 0
 751 339 707 386 631 408 c 0
 364 485 107 484 107 737 c 0
 107 911 283 1013 528 1013 c 0
 779 1013 901 931 901 854 c 0
 901 817 868 795 825 795 c 0
 810 795 794 798 780 806 c 0
 726 836 651 857 538 857 c 0
 402 857 325 811 325 743 c 0
EndSplineSet
EndChar

StartChar: section
Encoding: 167 167 216
Width: 1230
VWidth: 0
Flags: W
LayerCount: 2
Fore
SplineSet
576 925 m 1
 496 877 427 836 427 756 c 0
 427 670 544 629 629 592 c 1
 711 637 798 682 798 763 c 0
 798 853 674 883 576 925 c 1
917 1474 m 0
 960 1463 977 1432 977 1401 c 0
 977 1355 944 1321 895 1321 c 0
 892 1321 888 1321 884 1323 c 0
 824 1338 763 1353 704 1353 c 0
 618 1353 511 1328 511 1229 c 0
 511 1047 1010 1077 1010 792 c 0
 1010 667 913 577 789 526 c 1
 906 481 993 405 993 277 c 0
 993 72 814 -33 576 -33 c 0
 465 -33 356 -19 252 12 c 0
 209 25 192 52 192 83 c 0
 192 123 224 163 268 163 c 0
 277 163 286 162 294 159 c 0
 355 138 424 126 517 126 c 0
 621 126 732 171 732 287 c 0
 732 477 209 412 209 727 c 0
 209 842 313 942 433 982 c 1
 423 989 l 1
 315 1040 246 1115 246 1224 c 0
 246 1427 414 1512 654 1512 c 0
 745 1512 832 1495 917 1474 c 0
EndSplineSet
EndChar

StartChar: semicolon
Encoding: 59 59 217
Width: 615
VWidth: 0
Flags: W
LayerCount: 2
Fore
SplineSet
201 893 m 0
 201 960 254 1021 338 1021 c 0
 421 1021 474 960 474 893 c 0
 474 824 421 764 338 764 c 0
 254 764 201 824 201 893 c 0
319 -232 m 1
 118 -232 l 1
 222 238 l 1
 481 238 l 1
 319 -232 l 1
EndSplineSet
EndChar

StartChar: seven
Encoding: 55 55 218
Width: 1230
VWidth: 0
Flags: W
LayerCount: 2
Fore
SplineSet
589 74 m 1
 565 23 519 0 475 0 c 0
 408 0 341 49 341 120 c 1
 340 138 346 158 356 179 c 2
 831 1238 l 1
 199 1238 l 2
 132 1238 100 1287 100 1337 c 0
 100 1386 132 1436 199 1436 c 2
 968 1436 l 2
 1065 1436 1109 1387 1109 1318 c 0
 1109 1286 1099 1251 1082 1212 c 2
 589 74 l 1
EndSplineSet
EndChar

StartChar: six
Encoding: 54 54 219
Width: 1230
VWidth: 0
Flags: W
LayerCount: 2
Fore
SplineSet
1017 1368 m 1
 1052 1352 1066 1322 1066 1291 c 0
 1066 1240 1029 1188 977 1188 c 0
 968 1188 960 1189 953 1192 c 0
 868 1223 783 1244 714 1244 c 0
 404 1244 340 979 340 727 c 1
 343 726 l 1
 410 857 546 916 696 916 c 0
 969 916 1148 738 1148 462 c 0
 1148 179 955 -23 640 -23 c 0
 228 -23 82 280 82 647 c 0
 82 1055 204 1438 701 1438 c 0
 808 1438 921 1415 1017 1368 c 1
631 161 m 0
 803 161 899 276 899 452 c 0
 899 619 823 753 649 753 c 0
 465 753 365 627 365 446 c 0
 365 283 475 161 631 161 c 0
EndSplineSet
EndChar

StartChar: slash
Encoding: 47 47 220
Width: 626
VWidth: 0
Flags: W
LayerCount: 2
Fore
SplineSet
155 -85 m 1
 140 -126 109 -144 76 -144 c 0
 33 -144 -10 -114 -10 -63 c 0
 -10 -54 -9 -43 -5 -32 c 2
 468 1389 l 2
 482 1432 517 1449 550 1449 c 0
 593 1449 636 1419 636 1368 c 0
 636 1357 635 1347 631 1336 c 2
 155 -85 l 1
EndSplineSet
EndChar

StartChar: sterling
Encoding: 163 163 222
Width: 1379
VWidth: 0
Flags: W
LayerCount: 2
Fore
SplineSet
194 713 m 2
 135 713 106 757 106 801 c 0
 106 845 135 890 194 890 c 2
 307 890 l 1
 307 1087 l 2
 307 1359 494 1464 731 1464 c 0
 834 1464 950 1447 1049 1412 c 1
 1085 1393 1104 1360 1104 1325 c 0
 1104 1285 1078 1248 1019 1248 c 0
 1004 1248 985 1250 965 1257 c 1
 892 1269 829 1281 753 1281 c 0
 574 1281 547 1210 547 1008 c 2
 547 890 l 1
 865 890 l 2
 924 890 953 846 953 802 c 0
 953 758 924 713 865 713 c 2
 547 713 l 1
 547 201 l 1
 1143 201 l 2
 1211 201 1243 150 1243 100 c 0
 1243 49 1211 -1 1143 -1 c 2
 230 -1 l 2
 161 -1 128 50 128 101 c 0
 128 149 160 198 220 198 c 2
 307 198 l 1
 307 713 l 1
 194 713 l 2
EndSplineSet
EndChar

StartChar: summation
Encoding: 8721 8721 223
Width: 1217
VWidth: 0
Flags: W
LayerCount: 2
Fore
SplineSet
121 -200 m 2
 53 -200 30 -164 30 -127 c 0
 30 -104 39 -82 52 -66 c 2
 599 619 l 1
 77 1297 l 2
 62 1316 53 1339 53 1365 c 0
 53 1406 79 1445 150 1445 c 2
 1138 1445 l 2
 1196 1445 1225 1398 1225 1353 c 0
 1225 1308 1196 1261 1138 1261 c 2
 384 1261 l 1
 384 1253 l 1
 856 647 l 1
 341 5 l 1
 341 -3 l 1
 1175 -3 l 2
 1236 -3 1266 -52 1266 -102 c 0
 1266 -151 1236 -200 1175 -200 c 2
 121 -200 l 2
EndSplineSet
EndChar

StartChar: t
Encoding: 116 116 224
Width: 743
VWidth: 0
Flags: W
LayerCount: 2
Fore
SplineSet
226 1001 m 1
 245 1270 l 2
 249 1330 306 1363 357 1363 c 0
 405 1363 449 1335 449 1272 c 2
 449 1001 l 1
 602 1001 l 2
 657 1001 685 960 685 920 c 0
 685 880 658 840 602 840 c 2
 449 840 l 1
 449 424 l 2
 449 235 453 167 560 167 c 0
 586 167 629 174 645 174 c 0
 696 174 725 134 725 93 c 0
 725 9 611 -12 505 -12 c 0
 319 -12 214 77 214 342 c 2
 214 840 l 1
 117 840 l 2
 61 840 34 880 34 920 c 0
 34 960 62 1001 118 1001 c 2
 226 1001 l 1
EndSplineSet
EndChar

StartChar: thorn
Encoding: 254 254 225
Width: 1207
VWidth: 0
Flags: W
LayerCount: 2
Fore
SplineSet
357 -229 m 2
 357 -304 300 -342 242 -342 c 0
 184 -342 127 -305 127 -229 c 2
 127 1327 l 2
 127 1400 185 1437 245 1437 c 0
 304 1437 362 1401 362 1327 c 2
 362 830 l 1
 431 960 571 1026 707 1026 c 0
 979 1026 1124 801 1124 506 c 0
 1124 230 988 -24 712 -24 c 0
 569 -24 442 43 357 184 c 1
 357 -229 l 2
362 514 m 0
 362 293 424 133 640 133 c 0
 838 133 882 339 882 509 c 0
 882 691 822 866 628 866 c 0
 432 866 362 709 362 514 c 0
EndSplineSet
EndChar

StartChar: three
Encoding: 51 51 226
Width: 1230
VWidth: 0
Flags: W
LayerCount: 2
Fore
SplineSet
545 822 m 2
 702 824 827 895 827 1045 c 0
 827 1184 707 1254 571 1254 c 0
 441 1254 296 1198 263 1198 c 0
 205 1198 170 1245 170 1294 c 0
 170 1334 192 1374 247 1393 c 1
 343 1433 459 1458 582 1458 c 0
 882 1458 1087 1317 1087 1066 c 0
 1087 899 967 776 822 746 c 1
 822 742 l 1
 1005 708 1115 571 1115 385 c 0
 1115 100 874 -19 598 -19 c 0
 485 -19 349 11 243 64 c 1
 198 83 178 118 178 153 c 0
 178 201 214 247 274 247 c 0
 281 247 288 246 296 245 c 1
 357 221 466 183 585 183 c 0
 742 183 848 255 848 395 c 0
 848 553 724 644 552 644 c 2
 479 644 l 2
 421 644 393 688 393 732 c 0
 393 777 422 820 479 821 c 2
 545 822 l 2
EndSplineSet
EndChar

StartChar: threequarters
Encoding: 190 190 227
Width: 1722
VWidth: 0
Flags: W
LayerCount: 2
Fore
SplineSet
296 1059 m 2
 388 1061 462 1108 462 1197 c 0
 462 1277 392 1320 312 1320 c 0
 233 1320 144 1286 126 1286 c 0
 93 1286 72 1311 72 1338 c 0
 72 1400 215 1433 315 1433 c 0
 466 1433 588 1350 588 1199 c 0
 588 1100 522 1036 433 1012 c 1
 433 1010 l 1
 540 987 606 907 606 796 c 0
 606 647 482 566 320 566 c 0
 239 566 78 600 78 664 c 0
 78 691 99 715 134 715 c 0
 163 715 239 677 319 677 c 0
 414 677 475 718 475 802 c 0
 475 894 401 955 300 955 c 2
 255 955 l 2
 220 955 204 979 204 1006 c 0
 204 1033 220 1057 255 1058 c 2
 296 1059 l 2
682 -25 m 2
 670 -61 642 -76 613 -76 c 0
 576 -76 538 -49 538 -6 c 0
 538 1 540 11 543 22 c 2
 1009 1399 l 2
 1021 1435 1051 1451 1080 1451 c 0
 1119 1451 1156 1425 1156 1380 c 0
 1156 1373 1154 1363 1151 1352 c 2
 682 -25 l 2
1253 757 m 1
 1288 821 1327 838 1376 838 c 0
 1429 838 1467 802 1467 730 c 2
 1467 275 l 1
 1540 275 l 2
 1575 275 1591 252 1591 229 c 0
 1591 206 1575 183 1540 183 c 2
 1467 183 l 1
 1467 68 l 2
 1467 23 1435 1 1404 1 c 0
 1372 1 1340 23 1340 68 c 2
 1340 183 l 1
 1012 183 l 2
 967 183 940 207 940 242 c 0
 940 257 944 271 953 284 c 2
 1253 757 l 1
1066 273 m 1
 1340 273 l 1
 1340 718 l 1
 1066 273 l 1
EndSplineSet
EndChar

StartChar: threesuperior
Encoding: 179 179 228
Width: 818
VWidth: 0
Flags: W
LayerCount: 2
Fore
SplineSet
381 1053 m 2
 473 1053 547 1104 547 1191 c 0
 547 1273 477 1315 397 1315 c 0
 318 1315 230 1280 211 1280 c 0
 178 1280 157 1306 157 1333 c 0
 157 1394 301 1427 400 1427 c 0
 551 1427 673 1345 673 1193 c 0
 673 1094 608 1030 519 1006 c 1
 519 1005 l 1
 624 981 691 900 691 790 c 0
 691 642 568 560 405 560 c 0
 324 560 163 594 163 658 c 0
 163 685 184 709 219 709 c 0
 250 709 325 671 405 671 c 0
 498 671 560 713 560 797 c 0
 560 889 486 949 386 949 c 2
 340 949 l 2
 305 949 290 975 290 1000 c 0
 290 1027 307 1053 340 1053 c 2
 381 1053 l 2
EndSplineSet
EndChar

StartChar: tilde
Encoding: 732 732 229
Width: 569
VWidth: 0
Flags: W
LayerCount: 2
Fore
SplineSet
419 1304 m 0
 446 1304 461 1322 478 1349 c 0
 497 1381 522 1394 545 1394 c 0
 574 1394 599 1372 599 1341 c 0
 599 1336 599 1332 598 1329 c 0
 581 1225 517 1158 413 1158 c 0
 315 1158 221 1244 154 1244 c 0
 123 1244 99 1226 78 1194 c 0
 61 1167 37 1157 14 1157 c 0
 -15 1157 -40 1175 -40 1207 c 0
 -40 1211 -39 1215 -38 1222 c 0
 -15 1326 45 1389 149 1389 c 0
 261 1389 355 1304 419 1304 c 0
EndSplineSet
EndChar

StartChar: trademark
Encoding: 8482 8482 230
Width: 1962
VWidth: 0
Flags: W
LayerCount: 2
Fore
SplineSet
990 1188 m 1
 990 727 l 2
 990 675 951 650 912 650 c 0
 873 650 834 675 834 727 c 2
 834 1261 l 2
 834 1354 892 1396 953 1396 c 0
 1000 1396 1052 1368 1079 1303 c 1
 1281 862 l 1
 1483 1303 l 1
 1510 1367 1561 1395 1608 1395 c 0
 1670 1395 1726 1353 1726 1261 c 2
 1726 727 l 2
 1726 676 1687 650 1648 650 c 0
 1609 650 1571 675 1571 727 c 2
 1571 1188 l 1
 1354 709 l 1
 1341 674 1310 655 1279 655 c 0
 1248 655 1220 672 1207 709 c 1
 990 1188 l 1
295 1279 m 1
 126 1279 l 2
 86 1279 65 1309 65 1338 c 0
 65 1367 85 1396 126 1396 c 2
 624 1396 l 2
 664 1396 685 1366 685 1337 c 0
 685 1308 665 1279 624 1279 c 2
 457 1279 l 1
 457 728 l 2
 457 676 416 650 376 650 c 0
 335 650 295 676 295 728 c 2
 295 1279 l 1
EndSplineSet
EndChar

StartChar: two
Encoding: 50 50 231
Width: 1230
VWidth: 0
Flags: W
LayerCount: 2
Fore
SplineSet
586 1229 m 0
 488 1229 385 1187 311 1152 c 0
 292 1143 275 1140 260 1140 c 0
 205 1140 169 1183 169 1231 c 0
 169 1266 188 1303 239 1330 c 0
 346 1386 497 1431 619 1431 c 0
 879 1431 1077 1303 1077 1072 c 0
 1077 779 703 426 415 198 c 1
 994 198 l 2
 1058 198 1090 149 1090 98 c 0
 1090 49 1058 0 994 0 c 2
 242 0 l 2
 147 0 103 53 103 117 c 0
 103 165 128 214 175 257 c 0
 221 299 385 442 465 522 c 1
 660 709 819 914 819 1048 c 0
 819 1168 708 1229 586 1229 c 0
EndSplineSet
EndChar

StartChar: twosuperior
Encoding: 178 178 232
Width: 754
VWidth: 0
Flags: W
LayerCount: 2
Fore
SplineSet
364 1315 m 0
 305 1315 246 1291 203 1270 c 0
 194 1265 184 1263 173 1263 c 0
 142 1263 121 1287 121 1315 c 0
 121 1380 287 1431 382 1431 c 0
 531 1431 648 1358 648 1222 c 0
 648 1050 425 840 258 707 c 1
 601 707 l 2
 637 707 656 678 656 650 c 0
 656 622 638 594 601 594 c 2
 162 594 l 2
 106 594 81 624 81 661 c 0
 81 731 184 784 293 898 c 1
 407 1004 501 1129 501 1208 c 0
 501 1280 435 1315 364 1315 c 0
EndSplineSet
EndChar

StartChar: u
Encoding: 117 117 233
Width: 1195
VWidth: 0
Flags: W
LayerCount: 2
Fore
SplineSet
1058 112 m 2
 1058 37 1000 0 940 0 c 0
 883 0 827 35 824 106 c 1
 824 181 l 1
 765 73 637 -12 489 -12 c 0
 301 -12 137 109 137 366 c 2
 137 888 l 2
 137 963 195 1001 254 1001 c 0
 314 1001 372 963 372 888 c 2
 372 362 l 2
 372 217 464 142 569 142 c 0
 701 142 815 224 824 383 c 1
 824 889 l 2
 824 964 882 1001 941 1001 c 0
 1000 1001 1058 964 1058 889 c 2
 1058 112 l 2
EndSplineSet
EndChar

StartChar: underscore
Encoding: 95 95 238
Width: 1024
VWidth: 0
Flags: W
LayerCount: 2
Fore
SplineSet
60 -255 m 2
 20 -255 0 -223 0 -191 c 0
 0 -159 20 -127 60 -127 c 2
 961 -127 l 2
 1002 -127 1023 -159 1023 -191 c 0
 1023 -223 1002 -255 961 -255 c 2
 60 -255 l 2
EndSplineSet
EndChar

StartChar: uni030F
Encoding: 783 783 270
Width: 569
VWidth: 0
Flags: W
LayerCount: 2
Fore
SplineSet
-67 1384 m 2
 -87 1400 -95 1421 -95 1441 c 0
 -95 1493 -37 1548 18 1548 c 0
 43 1548 67 1538 86 1511 c 1
 338 1197 l 2
 346 1186 348 1174 349 1163 c 1
 349 1134 326 1110 295 1110 c 0
 280 1110 264 1116 249 1129 c 2
 -67 1384 l 2
308 1384 m 2
 288 1400 280 1421 280 1441 c 0
 280 1493 338 1548 393 1548 c 0
 418 1548 442 1538 461 1511 c 1
 712 1197 l 2
 721 1186 723 1173 724 1162 c 1
 724 1134 701 1110 670 1110 c 1
 655 1109 639 1116 624 1129 c 2
 308 1384 l 2
EndSplineSet
EndChar

StartChar: uni0311
Encoding: 785 785 271
Width: 569
VWidth: 0
Flags: W
LayerCount: 2
Fore
SplineSet
285 1403 m 0
 422 1403 530 1342 577 1234 c 0
 583 1220 586 1207 586 1195 c 0
 586 1155 553 1132 518 1132 c 0
 491 1132 465 1145 449 1173 c 1
 409 1230 368 1253 285 1253 c 0
 202 1253 161 1230 121 1173 c 1
 105 1145 77 1132 52 1132 c 0
 17 1132 -16 1155 -16 1195 c 0
 -16 1207 -13 1220 -7 1234 c 0
 40 1342 148 1403 285 1403 c 0
EndSplineSet
EndChar

StartChar: uni0326
Encoding: 806 806 272
Width: 615
VWidth: 0
Flags: W
LayerCount: 2
Fore
SplineSet
292 -675 m 1
 91 -675 l 1
 195 -204 l 1
 454 -204 l 1
 292 -675 l 1
EndSplineSet
EndChar

StartChar: v
Encoding: 118 118 278
Width: 1069
VWidth: 0
Flags: W
LayerCount: 2
Fore
SplineSet
738 168 m 2
 693 52 639 0 538 0 c 0
 437 0 387 52 339 168 c 1
 61 861 l 2
 56 872 54 885 54 899 c 0
 54 961 112 1001 171 1001 c 0
 215 1001 253 977 274 922 c 2
 538 230 l 1
 793 921 l 2
 813 977 852 1001 898 1001 c 0
 955 1001 1014 961 1014 899 c 1
 1013 887 1012 873 1007 860 c 2
 738 168 l 2
EndSplineSet
EndChar

StartChar: w
Encoding: 119 119 279
Width: 1742
VWidth: 0
Flags: W
LayerCount: 2
Fore
SplineSet
877 807 m 1
 644 145 l 2
 603 30 542 0 473 0 c 0
 409 0 355 35 322 130 c 2
 70 855 l 2
 65 870 65 882 65 891 c 0
 65 959 118 1001 169 1001 c 0
 214 1001 254 973 273 917 c 1
 494 218 l 1
 728 881 l 2
 757 964 803 1001 880 1001 c 0
 960 1001 1006 965 1034 881 c 2
 1253 226 l 1
 1474 917 l 1
 1493 973 1532 1001 1577 1001 c 0
 1641 1001 1678 958 1678 898 c 0
 1678 883 1676 869 1671 855 c 2
 1411 131 l 2
 1377 36 1324 0 1260 0 c 0
 1193 0 1141 30 1102 146 c 2
 877 807 l 1
EndSplineSet
EndChar

StartChar: x
Encoding: 120 120 280
Width: 1076
VWidth: 0
Flags: W
LayerCount: 2
Fore
SplineSet
386 513 m 1
 132 833 l 2
 117 852 109 872 109 893 c 0
 109 952 168 1001 228 1001 c 0
 259 1001 292 988 316 953 c 1
 544 648 l 1
 780 957 l 2
 804 988 831 1001 861 1001 c 0
 916 1001 970 955 970 902 c 0
 970 883 963 864 948 845 c 2
 692 516 l 1
 969 166 l 2
 984 147 992 127 992 106 c 0
 992 49 933 0 873 0 c 0
 841 0 809 14 784 47 c 2
 530 382 l 1
 276 44 l 2
 253 13 225 0 196 0 c 0
 140 0 84 49 84 102 c 0
 84 121 91 140 104 157 c 2
 386 513 l 1
EndSplineSet
EndChar

StartChar: y
Encoding: 121 121 281
Width: 1058
VWidth: 0
Flags: W
LayerCount: 2
Fore
SplineSet
423 11 m 1
 56 857 l 2
 49 872 47 885 47 899 c 0
 47 959 105 1001 163 1001 c 0
 204 1001 243 981 263 930 c 2
 534 241 l 1
 809 931 l 1
 825 980 863 1001 902 1001 c 0
 957 1001 1013 959 1013 898 c 0
 1013 886 1011 871 1006 858 c 2
 525 -333 l 1
 505 -386 465 -408 422 -408 c 0
 366 -408 308 -366 308 -303 c 1
 309 -292 310 -278 315 -265 c 2
 423 11 l 1
EndSplineSet
EndChar

StartChar: yen
Encoding: 165 165 284
Width: 1252
VWidth: 0
Flags: W
LayerCount: 2
Fore
SplineSet
775 639 m 1
 1075 639 l 2
 1118 639 1138 607 1138 576 c 0
 1138 544 1118 513 1075 513 c 2
 763 513 l 1
 763 398 l 1
 1075 398 l 2
 1118 398 1138 366 1138 335 c 0
 1138 303 1118 272 1075 272 c 2
 762 272 l 1
 762 124 l 2
 762 41 695 2 628 2 c 0
 561 2 494 41 494 124 c 2
 494 272 l 1
 186 272 l 2
 143 272 123 304 123 336 c 0
 123 367 143 398 186 398 c 2
 494 398 l 1
 494 513 l 1
 186 513 l 2
 143 513 123 545 123 577 c 0
 123 608 143 639 186 639 c 2
 477 639 l 1
 69 1271 l 2
 57 1289 52 1310 52 1326 c 0
 52 1388 118 1434 184 1434 c 0
 227 1434 271 1414 295 1366 c 1
 642 799 l 1
 993 1371 l 1
 1016 1416 1057 1435 1097 1435 c 0
 1154 1435 1210 1396 1210 1341 c 1
 1209 1325 1206 1306 1194 1288 c 2
 775 639 l 1
EndSplineSet
EndChar

StartChar: z
Encoding: 122 122 285
Width: 966
VWidth: 0
Flags: W
LayerCount: 2
Fore
SplineSet
808 176 m 2
 867 176 896 132 896 88 c 0
 896 44 867 0 808 0 c 2
 177 0 l 2
 111 0 71 43 71 95 c 0
 71 119 79 145 98 169 c 2
 616 824 l 1
 177 824 l 2
 118 824 89 868 89 913 c 0
 89 957 118 1001 177 1001 c 2
 787 1001 l 2
 863 1001 900 961 900 912 c 0
 900 888 890 859 871 834 c 2
 353 176 l 1
 808 176 l 2
EndSplineSet
EndChar

StartChar: zero
Encoding: 48 48 287
Width: 1230
VWidth: 0
Flags: W
LayerCount: 2
Fore
SplineSet
615 1258 m 0
 381 1258 349 974 349 718 c 0
 349 462 381 178 615 178 c 0
 849 178 881 462 881 718 c 0
 881 974 849 1258 615 1258 c 0
615 1448 m 0
 1023 1448 1146 1101 1146 718 c 0
 1146 335 1023 -13 615 -13 c 0
 206 -13 83 335 83 718 c 0
 83 1101 205 1448 615 1448 c 0
EndSplineSet
EndChar
